<svg xmlns="http://www.w3.org/2000/svg" viewBox="0 0 750 500"><g id="freepik--background-complete--inject-64"><path d="M541.4,76.32a4.8,4.8,0,1,1,0-6.79A4.79,4.79,0,0,1,541.4,76.32Z" style="fill:#e0e0e0"></path><path d="M542,74.7c-.46-.06,0-5.14,1.78-11.08s3.42-10.58,3.84-10.49-.44,5.08-2.24,11S542.48,74.76,542,74.7Z" style="fill:#e0e0e0"></path><path d="M561.42,60.36c.06.38-3.89,1.08-8.37-.79a11.34,11.34,0,0,1-4.88-3.69c-.94-1.32-1-2.4-.78-2.44s.65.73,1.68,1.68A15.27,15.27,0,0,0,553.7,58C557.71,59.73,561.44,59.83,561.42,60.36Z" style="fill:#e0e0e0"></path><path d="M555.17,83.56a4.8,4.8,0,1,1,0-6.79A4.81,4.81,0,0,1,555.17,83.56Z" style="fill:#e0e0e0"></path><path d="M555.8,81.93c-.46-.06,0-5.14,1.79-11.07s3.41-10.59,3.83-10.5-.44,5.09-2.24,11S556.25,82,555.8,81.93Z" style="fill:#e0e0e0"></path><path d="M560.62,63.54c.12.42-3.61,1.33-7.88-.28s-6.51-4.69-6.15-4.93,2.88,2,6.73,3.37S560.58,63.05,560.62,63.54Z" style="fill:#e0e0e0"></path><path d="M295.73,56a4.41,4.41,0,1,1-3.56-5.12A4.41,4.41,0,0,1,295.73,56Z" style="fill:#e0e0e0"></path><path d="M295.36,54.39c-.38.2-2.68-3.88-4.41-9.31S288,35.3,288.4,35.15s2.31,4.07,4,9.46S295.74,54.2,295.36,54.39Z" style="fill:#e0e0e0"></path><path d="M302.58,33.46c.24.26-2.39,2.83-6.75,3.75a10.37,10.37,0,0,1-5.61-.25c-1.4-.51-2-1.31-1.86-1.45s.87.22,2.15.4a13.88,13.88,0,0,0,5-.2C299.44,34.91,302.32,33.05,302.58,33.46Z" style="fill:#e0e0e0"></path><path d="M309.91,54.26a4.41,4.41,0,1,1-3.56-5.12A4.41,4.41,0,0,1,309.91,54.26Z" style="fill:#e0e0e0"></path><path d="M309.54,52.7c-.38.2-2.68-3.88-4.41-9.31s-2.92-9.78-2.55-9.93,2.31,4.07,4,9.46S309.92,52.51,309.54,52.7Z" style="fill:#e0e0e0"></path><path d="M303.63,36.28c.3.26-2.05,2.88-6.11,3.89s-7.37-.16-7.22-.54,3.21,0,6.85-1S303.34,35.93,303.63,36.28Z" style="fill:#e0e0e0"></path><circle cx="319.43" cy="111.17" r="4.64" transform="translate(-8.11 26.83) rotate(-4.75)" style="fill:#e0e0e0"></circle><path d="M323.45,112.55c-.28,0-.1-4.89,1.19-10.73s2.39-10.48,2.64-10.45-.34,4.87-1.64,10.66S323.73,112.57,323.45,112.55Z" style="fill:#e0e0e0"></path><path d="M337.11,93c.13.23-2.18,1.43-5.25,1s-5-2.15-4.81-2.33,2.17,1,4.94,1.32S337,92.71,337.11,93Z" style="fill:#e0e0e0"></path><path d="M335.82,97.63c.16.22-2.09,1.52-5.06.9s-4.54-2.66-4.3-2.79S328.35,97,331,97.53,335.71,97.35,335.82,97.63Z" style="fill:#e0e0e0"></path><path d="M464.94,63.89a4.64,4.64,0,1,1-4.53-4.73A4.64,4.64,0,0,1,464.94,63.89Z" style="fill:#e0e0e0"></path><path d="M464.3,62.33c-.22.17-3.16-3.74-5.83-9.08s-4.76-9.64-4.54-9.77,2.8,4,5.44,9.3S464.53,62.17,464.3,62.33Z" style="fill:#e0e0e0"></path><path d="M462.59,38.55c.25.09-.79,2.49-3.43,4.1s-5.24,1.48-5.21,1.22,2.3-.61,4.67-2.09S462.33,38.39,462.59,38.55Z" style="fill:#e0e0e0"></path><path d="M464.51,43c.26.06-.67,2.49-3.36,3.88s-5.21.8-5.11.54,2.29-.18,4.63-1.44S464.25,42.81,464.51,43Z" style="fill:#e0e0e0"></path><circle cx="193.94" cy="73.07" r="4.64" transform="translate(102.69 259.15) rotate(-84.52)" style="fill:#e0e0e0"></circle><path d="M198,74.45c-.28,0-.1-4.89,1.19-10.73s2.38-10.48,2.64-10.45-.34,4.87-1.64,10.66S198.24,74.47,198,74.45Z" style="fill:#e0e0e0"></path><path d="M211.61,54.9c.14.23-2.18,1.44-5.24,1s-5-2.14-4.81-2.33,2.17,1,4.94,1.32S211.52,54.61,211.61,54.9Z" style="fill:#e0e0e0"></path><path d="M210.33,59.53c.16.22-2.09,1.52-5.06.91s-4.54-2.66-4.31-2.8,1.9,1.3,4.51,1.8S210.22,59.25,210.33,59.53Z" style="fill:#e0e0e0"></path><circle cx="634.27" cy="163.5" r="4.64" transform="translate(-11.36 53.08) rotate(-4.75)" style="fill:#e0e0e0"></circle><path d="M638.29,164.88c-.29,0-.1-4.89,1.19-10.73s2.38-10.48,2.63-10.45-.34,4.87-1.63,10.66S638.57,164.9,638.29,164.88Z" style="fill:#e0e0e0"></path><path d="M651.94,145.33c.14.23-2.18,1.43-5.25,1s-5-2.15-4.81-2.33,2.17,1,5,1.32S651.84,145,651.94,145.33Z" style="fill:#e0e0e0"></path><path d="M650.65,150c.17.22-2.09,1.52-5,.9s-4.55-2.66-4.31-2.79,1.89,1.29,4.51,1.79S650.55,149.68,650.65,150Z" style="fill:#e0e0e0"></path><polygon points="339.14 375.55 315.83 476.78 325.69 476.76 349.05 376.5 339.14 375.55" style="fill:#e0e0e0"></polygon><polygon points="381.68 375.55 405.08 476.78 414.44 476.78 391.81 375.55 381.68 375.55" style="fill:#e0e0e0"></polygon><polygon points="323.41 299.51 336.68 369.21 351.77 369.21 337.59 299.51 323.41 299.51" style="fill:#e0e0e0"></polygon><polygon points="92.17 375.55 73.16 476.78 82.84 476.78 102.71 375.55 92.17 375.55" style="fill:#e0e0e0"></polygon><polygon points="132.17 375.55 153.91 476.23 163.47 476.23 142.48 375.55 132.17 375.55" style="fill:#e0e0e0"></polygon><polygon points="76.44 299.51 89.71 369.21 104.8 369.21 90.62 299.51 76.44 299.51" style="fill:#e0e0e0"></polygon><polygon points="46.57 293.17 49.28 305.85 352.22 305.85 348.68 293.17 46.57 293.17" style="fill:#ebebeb"></polygon><polygon points="52.36 317.78 55.55 330.45 356.44 330.45 353.7 317.78 52.36 317.78" style="fill:#ebebeb"></polygon><polygon points="58.33 343.26 61.31 355.93 361.27 355.93 358.43 343.26 58.33 343.26" style="fill:#ebebeb"></polygon><rect x="81.26" y="369.21" width="323.45" height="12.67" style="fill:#ebebeb"></rect><rect x="283.92" y="247.68" width="48.65" height="12.87" style="fill:#e0e0e0"></rect><path d="M312,274.11s0-.09,0-.23l0-.67c0-.6,0-1.45,0-2.53,0-2.22-.05-5.41-.09-9.44l.15.15-48.65.1.25-.25h0v6.52q0,3.23,0,6.33l-.24-.24L298,274l10.24.07,2.76,0h.73l.25,0h-.22l-.69,0-2.72,0-10.18.07-34.84.11h-.24v-6.57c0-1.08,0-2.16,0-3.25v-3.27h0l.25-.25,48.65.1h.16v.15c0,4.06-.07,7.29-.09,9.53,0,1.07,0,1.9,0,2.5,0,.26,0,.47,0,.63S312,274.11,312,274.11Z" style="fill:#e0e0e0"></path><rect x="628.13" y="273.24" width="48.65" height="12.87" style="fill:#e0e0e0"></rect><path d="M656.21,299.67a2.07,2.07,0,0,1,0-.23l0-.66c0-.61,0-1.45,0-2.54,0-2.22,0-5.41-.08-9.44l.15.15-48.65.1.25-.25h0v6.52q0,3.23,0,6.33l-.24-.24,34.67.11,10.23.07,2.77,0,.73,0h.25s-.07,0-.22,0h-.7l-2.71,0-10.18.07-34.84.11h-.24v-.24c0-2.07,0-4.18,0-6.33v-6.52h0l.25-.25,48.65.1h.15v.15c0,4.07-.06,7.29-.08,9.53,0,1.07,0,1.91,0,2.5,0,.26,0,.47,0,.64S656.22,299.68,656.21,299.67Z" style="fill:#e0e0e0"></path><path d="M705.52,135.52a2.07,2.07,0,0,1,0-.23l0-.66c0-.61,0-1.45,0-2.54,0-2.22-.05-5.41-.09-9.44l.15.15-48.65.1.25-.25h0v6.52q0,3.23,0,6.33l-.24-.24,34.67.11,10.24.07,2.76,0,.73,0h.25s-.07,0-.22,0h-.69l-2.72,0-10.18.07-34.84.11h-.24v-6.58c0-1.07,0-2.16,0-3.25v-3.27h0l.25-.25,48.65.1h.16v.15c0,4.07-.07,7.29-.09,9.53,0,1.07,0,1.91,0,2.5l0,.64C705.53,135.46,705.53,135.53,705.52,135.52Z" style="fill:#e0e0e0"></path><path d="M712.12,122.65a1.35,1.35,0,0,1,0-.24c0-.19,0-.41,0-.69,0-.63,0-1.49,0-2.58,0-2.25-.06-5.44-.1-9.36l.18.18-29.23.07.25-.25h0v3.33c0,1.11,0,2.2,0,3.28,0,2.15,0,4.24,0,6.24l-.23-.24,20.91.12,6.09.06,1.64,0,.59,0a3.28,3.28,0,0,1-.53,0l-1.59,0-6,.06-21.07.12h-.24v-.24c0-2,0-4.09,0-6.24V109.8h0l.25-.25,29.23.07h.18v.18c0,4-.07,7.19-.1,9.47,0,1.07,0,1.92,0,2.54A6.65,6.65,0,0,1,712.12,122.65Z" style="fill:#e0e0e0"></path><path d="M93.23,108.85a1,1,0,0,1,0-.23V108c0-.61,0-1.45,0-2.53,0-2.23,0-5.42-.08-9.45l.15.15-48.65.1.25-.25h0v12.85l-.24-.24,34.67.11,10.23.07,2.77,0,.72,0h.26s-.07,0-.23,0h-.69l-2.71,0L79.42,109l-34.84.12h-.25V96h0l.25-.25,48.65.1h.15V96c0,4.07-.06,7.29-.08,9.54,0,1.06,0,1.9,0,2.49l0,.64A1.23,1.23,0,0,1,93.23,108.85Z" style="fill:#e0e0e0"></path><path d="M99.83,96a.68.68,0,0,1,0-.24c0-.19,0-.41,0-.69,0-.63,0-1.49-.05-2.58,0-2.25,0-5.44-.09-9.36l.18.18-29.23.07c-.23.22.3-.3.24-.25h0v6.62c0,2.15,0,4.24,0,6.24l-.24-.23,20.92.11,6.09.06,1.64,0,.59,0a3.43,3.43,0,0,1-.53,0l-1.6,0-6,.07-21.07.11h-.23V96c0-2,0-4.09,0-6.24V83.12h0l.25-.25,29.23.07H100v.18c0,4-.07,7.19-.09,9.47,0,1.07,0,1.92,0,2.54S99.84,96,99.83,96Z" style="fill:#e0e0e0"></path><polygon points="679.68 393.34 691.05 395.21 691.05 413.53 679.68 415.74 679.68 393.34" style="fill:#ebebeb"></polygon><rect x="690.64" y="393.01" width="2.88" height="22.4" rx="1.33" style="fill:#ebebeb"></rect><path d="M692.94,399h.81a4,4,0,0,1,4,4v.69a4,4,0,0,1-4,4h-.81a0,0,0,0,1,0,0V399A0,0,0,0,1,692.94,399Z" style="fill:#ebebeb"></path><path d="M690.56,413.61a74.21,74.21,0,0,1-.28-9.18,74.31,74.31,0,0,1,.28-9.19,74.31,74.31,0,0,1,.28,9.19A74.21,74.21,0,0,1,690.56,413.61Z" style="fill:#e0e0e0"></path><path d="M693.37,413.73a76.63,76.63,0,0,1-.28-9.18,76.63,76.63,0,0,1,.28-9.18,72.94,72.94,0,0,1,.29,9.18A72.94,72.94,0,0,1,693.37,413.73Z" style="fill:#e0e0e0"></path><path d="M638.88,464.85v-93a20.4,20.4,0,0,1,20.4-20.4h0a20.4,20.4,0,0,1,20.4,20.4v93Z" style="fill:#ebebeb"></path><rect x="632.45" y="374.05" width="54.06" height="11.28" rx="5.19" style="fill:#ebebeb"></rect><path d="M653,352.9l0-.81a5.86,5.86,0,0,1,5.49-6.18l1.59-.08a5.86,5.86,0,0,1,6.09,5.6l.07,1.39Z" style="fill:#ebebeb"></path><path d="M659.06,343.57h1a1.44,1.44,0,0,1,1.44,1.44v1.83a0,0,0,0,1,0,0h-3.87a0,0,0,0,1,0,0V345A1.44,1.44,0,0,1,659.06,343.57Z" style="fill:#ebebeb"></path><path d="M679.68,373.87c0,.15-9.12.28-20.36.28S639,374,639,373.87s9.12-.28,20.36-.28S679.68,373.71,679.68,373.87Z" style="fill:#e0e0e0"></path><path d="M653.55,353.65c0,.09-1.17.58-3,1.57a20.58,20.58,0,0,0-6.26,5,18.12,18.12,0,0,0-3.35,7.28c-.43,2-.34,3.34-.44,3.34a2.31,2.31,0,0,1-.13-.91,12.36,12.36,0,0,1,.18-2.5,16.74,16.74,0,0,1,3.3-7.56,18.94,18.94,0,0,1,6.52-5.05,24.21,24.21,0,0,1,2.3-1A3.18,3.18,0,0,1,653.55,353.65Z" style="fill:#fafafa"></path><path d="M666.18,352.47c-.06.2-2.95-1-6.67-1s-6.61,1.17-6.66,1a5.76,5.76,0,0,1,1.85-.81,15.58,15.58,0,0,1,4.82-.73,16.85,16.85,0,0,1,4.8.79A6.21,6.21,0,0,1,666.18,352.47Z" style="fill:#e0e0e0"></path><path d="M661.9,346.19a13.29,13.29,0,0,1-2.19-.15c-1.18,0-2.14.2-2.19,0s.9-.64,2.2-.6S662,346.06,661.9,346.19Z" style="fill:#e0e0e0"></path><path d="M673.74,407a14.1,14.1,0,1,1-14.09-14.09A14.09,14.09,0,0,1,673.74,407Z" style="fill:#e0e0e0"></path><path d="M673.74,404.54a14.1,14.1,0,1,1-14.09-14.1A14.09,14.09,0,0,1,673.74,404.54Z" style="fill:#f5f5f5"></path><path d="M673.74,404.54a24.24,24.24,0,0,0-.54-3.42,14.13,14.13,0,0,0-5.14-7.63,13.86,13.86,0,0,0-13.12-1.95,13.23,13.23,0,0,0-3.5,1.89,12.94,12.94,0,0,0-2.92,2.94,13.78,13.78,0,0,0,0,16.33,13.88,13.88,0,0,0,6.42,4.83,13.86,13.86,0,0,0,13.12-1.95A14.06,14.06,0,0,0,673.2,408a24.49,24.49,0,0,0,.54-3.41,4.77,4.77,0,0,1,0,.9,6.7,6.7,0,0,1-.09,1.09,9.65,9.65,0,0,1-.26,1.48,14.18,14.18,0,0,1-11.12,10.6,14.32,14.32,0,0,1-7.53-.59,14.32,14.32,0,0,1-6.69-5,14.29,14.29,0,0,1,0-17,13.33,13.33,0,0,1,3-3,13.5,13.5,0,0,1,3.64-1.95,14.32,14.32,0,0,1,7.53-.59,14.17,14.17,0,0,1,11.12,10.61,9.34,9.34,0,0,1,.26,1.47,6.82,6.82,0,0,1,.09,1.1A4.77,4.77,0,0,1,673.74,404.54Z" style="fill:#e0e0e0"></path><circle cx="659.65" cy="404.54" r="6.5" transform="translate(-102.55 538.1) rotate(-41.46)" style="fill:#e0e0e0"></circle><path d="M664.09,404.54a4.44,4.44,0,1,1-4.44-4.45A4.44,4.44,0,0,1,664.09,404.54Z" style="fill:#f5f5f5"></path><path d="M664.09,404.54c-.05,0-.05-.4-.24-1.06a4.46,4.46,0,0,0-1.63-2.31,4.2,4.2,0,1,0,0,6.74,4.5,4.5,0,0,0,1.63-2.31c.19-.67.19-1.06.24-1.06a2.25,2.25,0,0,1,0,1.11,4.4,4.4,0,0,1-1.6,2.58,4.64,4.64,0,0,1-4.41.73,4.69,4.69,0,0,1,0-8.84,4.62,4.62,0,0,1,4.41.73,4.4,4.4,0,0,1,1.6,2.58A2.28,2.28,0,0,1,664.09,404.54Z" style="fill:#e0e0e0"></path><path d="M679.68,385.47c0,.16-9.21.29-20.57.29s-20.57-.13-20.57-.29,9.21-.28,20.57-.28S679.68,385.32,679.68,385.47Z" style="fill:#e0e0e0"></path><path d="M638.54,375.32a12.08,12.08,0,0,1-1.33.36,5,5,0,0,0-3.55,4.81c0,.83.14,1.35.05,1.37s-.35-.46-.45-1.36a4.9,4.9,0,0,1,.93-3.34,5,5,0,0,1,2.92-1.87C638,375.12,638.55,375.26,638.54,375.32Z" style="fill:#fafafa"></path><path d="M653.12,393.87c0,.09-.93.57-2.2,1.73a12,12,0,0,0-3.6,12.16c.44,1.67,1,2.61.91,2.66s-.2-.2-.46-.63a9.53,9.53,0,0,1-.83-1.91,11.59,11.59,0,0,1,3.72-12.58,9.93,9.93,0,0,1,1.74-1.16A1.91,1.91,0,0,1,653.12,393.87Z" style="fill:#fafafa"></path><path d="M679.68,423.84c-.16,0-.28-8.64-.28-19.3s.12-19.31.28-19.31.28,8.64.28,19.31S679.84,423.84,679.68,423.84Z" style="fill:#e0e0e0"></path><path d="M625.64,476.26v-4.51a3.38,3.38,0,0,1,3.38-3.38h0v-1.45a6.44,6.44,0,0,1,6.44-6.44h45.73c3.55,0,6.39,4,6.39,7.58h1.62c1.87,0,3.39.37,3.39,2.24v6Z" style="fill:#e0e0e0"></path><path d="M689.2,468.06c0,.15-13.51.28-30.17.28s-30.18-.13-30.18-.28,13.51-.29,30.18-.29S689.2,467.9,689.2,468.06Z" style="fill:#f5f5f5"></path><polygon points="638.96 415.24 627.6 413.37 627.6 395.05 638.96 392.84 638.96 415.24" style="fill:#ebebeb"></polygon><rect x="625.12" y="393.17" width="2.88" height="22.4" rx="1.33" transform="translate(1253.12 808.74) rotate(180)" style="fill:#ebebeb"></rect><path d="M620.91,400.9h.81a4,4,0,0,1,4,4v.69a4,4,0,0,1-4,4h-.81a0,0,0,0,1,0,0V400.9A0,0,0,0,1,620.91,400.9Z" transform="translate(1246.61 810.46) rotate(180)" style="fill:#ebebeb"></path><path d="M628.08,395a72.94,72.94,0,0,1,.29,9.18,72.94,72.94,0,0,1-.29,9.18,76.63,76.63,0,0,1-.28-9.18A76.63,76.63,0,0,1,628.08,395Z" style="fill:#e0e0e0"></path><path d="M625.27,394.84a74.21,74.21,0,0,1,.28,9.18,74.31,74.31,0,0,1-.28,9.19A74.31,74.31,0,0,1,625,404,74.21,74.21,0,0,1,625.27,394.84Z" style="fill:#e0e0e0"></path><path d="M639,435.23c-.16,0-.29-10.93-.29-24.4s.13-24.4.29-24.4.28,10.92.28,24.4S639.12,435.23,639,435.23Z" style="fill:#e0e0e0"></path></g><g id="freepik--speech-bubbles--inject-64"><path d="M568.37,135.41l7.52-12.22a33.39,33.39,0,1,1,7.68,9.19h0Z" style="fill:#fafafa"></path><path d="M568.37,135.41l15.23-2.93.13,0-.07-.11h0l-.13.11a33.86,33.86,0,0,0,6.71,4.38,33.51,33.51,0,0,0,9,2.93,29.93,29.93,0,0,0,5.26.46c.91,0,1.84,0,2.77-.06l2.84-.32a33.67,33.67,0,0,0,21.3-12.63,33.07,33.07,0,0,0,6.09-12.68,34,34,0,0,0,.14-14.84,32.94,32.94,0,0,0-6.66-14l-1.31-1.54c-.42-.52-.94-1-1.41-1.44s-.93-1-1.47-1.37l-1.55-1.25A13.26,13.26,0,0,0,623.66,79L622,77.88,620.27,77a15.87,15.87,0,0,0-1.76-.86,34,34,0,0,0-14.86-2.83,32.89,32.89,0,0,0-13.86,3.56,33.83,33.83,0,0,0-16.51,18.9,35.85,35.85,0,0,0-1.84,10.79,33,33,0,0,0,4.38,16.71v-.08l-7.45,12.26L576,123.24l0,0,0,0a33.83,33.83,0,0,1-3-7.27,33.33,33.33,0,0,1-1.25-9.36,35.6,35.6,0,0,1,1.86-10.7,33.59,33.59,0,0,1,16.4-18.7,32.6,32.6,0,0,1,13.72-3.51,33.59,33.59,0,0,1,14.71,2.81,13.31,13.31,0,0,1,1.74.85l1.72.91,1.63,1.08a12.89,12.89,0,0,1,1.6,1.14l1.54,1.24A18.65,18.65,0,0,1,628.05,83c.47.47,1,.9,1.4,1.41l1.3,1.53a32.56,32.56,0,0,1,6.58,13.82,33.67,33.67,0,0,1-.12,14.69,32.89,32.89,0,0,1-6,12.55,33.41,33.41,0,0,1-21.09,12.55l-2.81.33c-.92.05-1.84,0-2.74.06a29.62,29.62,0,0,1-5.23-.43,33.71,33.71,0,0,1-9-2.88,34.63,34.63,0,0,1-6.69-4.32l-.51-.42.38.54h0l.06-.13Z" style="fill:#263238"></path><path d="M602.07,116.9a4.76,4.76,0,1,1-3.69-5.63A4.76,4.76,0,0,1,602.07,116.9Z" style="fill:#263238"></path><path d="M601.71,115.2c-.41.2-2.78-4.26-4.48-10.16s-2.87-10.64-2.47-10.79,2.37,4.46,4,10.32S602.13,115,601.71,115.2Z" style="fill:#263238"></path><path d="M610.1,92.83c.26.29-2.65,3-7.39,3.86a11.23,11.23,0,0,1-6-.43c-1.49-.6-2.1-1.48-2-1.61s.93.25,2.3.49a15.28,15.28,0,0,0,5.42-.08C606.68,94.31,609.83,92.39,610.1,92.83Z" style="fill:#263238"></path><path d="M617.41,115.48a4.75,4.75,0,1,1-3.69-5.62A4.76,4.76,0,0,1,617.41,115.48Z" style="fill:#263238"></path><path d="M617.06,113.79c-.41.2-2.78-4.26-4.49-10.17S609.7,93,610.1,92.83s2.37,4.47,4,10.32S617.47,113.59,617.06,113.79Z" style="fill:#263238"></path><path d="M611.15,95.9c.32.29-2.29,3.06-6.7,4s-7.94-.38-7.77-.78,3.46.09,7.41-.83S610.85,95.52,611.15,95.9Z" style="fill:#263238"></path><path d="M409.23,140.67l6.48-10.53a28.8,28.8,0,1,1,6.62,7.92h0Z" style="fill:#fafafa"></path><path d="M409.23,140.67l13.13-2.52.11,0-.07-.1h0l-.12.1a29.41,29.41,0,0,0,5.79,3.77,28.58,28.58,0,0,0,7.8,2.53,25.74,25.74,0,0,0,4.54.39c.78,0,1.58,0,2.39,0l2.44-.28A29,29,0,0,0,463.6,133.6a28.71,28.71,0,0,0,5.26-10.93,29.33,29.33,0,0,0,.11-12.79,28.42,28.42,0,0,0-5.73-12l-1.13-1.33c-.37-.45-.82-.82-1.22-1.23s-.81-.84-1.26-1.19L458.28,93a12.48,12.48,0,0,0-1.39-1l-1.43-.94-1.5-.79a11.1,11.1,0,0,0-1.51-.74,29.21,29.21,0,0,0-12.81-2.44,28.31,28.31,0,0,0-11.94,3.07,29.15,29.15,0,0,0-14.24,16.29,31.16,31.16,0,0,0-1.59,9.3,28.56,28.56,0,0,0,1.12,8.12,29.38,29.38,0,0,0,2.66,6.29v-.07l-6.42,10.56,6.54-10.49,0,0,0,0a29.94,29.94,0,0,1-2.61-6.27,28.6,28.6,0,0,1-1.08-8.07,31.22,31.22,0,0,1,1.6-9.22,29,29,0,0,1,14.14-16.12,28.12,28.12,0,0,1,11.83-3,29.06,29.06,0,0,1,12.68,2.42,14.81,14.81,0,0,1,1.5.73l1.48.79,1.41.93a13.26,13.26,0,0,1,1.38,1c.44.36.88.72,1.33,1.07s.83.79,1.25,1.17.84.78,1.2,1.23L463,98a28,28,0,0,1,5.68,11.9,29,29,0,0,1-.11,12.66,28.37,28.37,0,0,1-5.19,10.83,28.77,28.77,0,0,1-18.18,10.82l-2.42.28c-.8,0-1.59,0-2.37.05a25.58,25.58,0,0,1-4.51-.37,28.77,28.77,0,0,1-7.75-2.48,29.93,29.93,0,0,1-5.77-3.73l-.44-.36.33.46v0l.05-.12Z" style="fill:#263238"></path><path d="M440.1,125.3a3.9,3.9,0,1,1-1.83-5.2A3.89,3.89,0,0,1,440.1,125.3Z" style="fill:#263238"></path><path d="M440.15,123.89c-.23,0-1.12-4-1.31-9s-.29-9-.08-9.07.76,4,.93,9S440.38,123.84,440.15,123.89Z" style="fill:#263238"></path><path d="M447.11,105.05c.16.16-1.47,1.64-4.06,2s-4.53-.68-4.41-.87,2,.34,4.31,0S447,104.84,447.11,105.05Z" style="fill:#263238"></path><path d="M447.05,109.1c.18.15-1.38,1.69-3.93,1.81s-4.27-1.2-4.1-1.36,1.81.66,4.05.51S446.9,108.9,447.05,109.1Z" style="fill:#263238"></path><path d="M217.17,116.68l7.27-11.75a32.17,32.17,0,1,1,7.38,8.87h0Z" style="fill:#fafafa"></path><path d="M217.17,116.68l14.68-2.79.12,0-.07-.11h0l-.13.11a32.68,32.68,0,0,0,6.46,4.23,32.21,32.21,0,0,0,8.7,2.85,28.8,28.8,0,0,0,5.07.45c.88,0,1.77,0,2.67,0l2.73-.31a32.4,32.4,0,0,0,26.44-24.3A32.77,32.77,0,0,0,284,82.44,31.63,31.63,0,0,0,277.62,69l-1.26-1.49c-.41-.5-.91-.92-1.36-1.38a17.73,17.73,0,0,0-1.41-1.33l-1.49-1.21a13,13,0,0,0-1.56-1.11q-.8-.54-1.59-1.05l-1.67-.9a15.55,15.55,0,0,0-1.69-.83,32.8,32.8,0,0,0-14.3-2.76,31.59,31.59,0,0,0-13.35,3.4A32.57,32.57,0,0,0,222,78.48a34.78,34.78,0,0,0-1.8,10.39,31.73,31.73,0,0,0,1.23,9.07,32.53,32.53,0,0,0,3,7v-.08c-4.61,7.56-6.89,11.29-7.2,11.79l7.34-11.7,0,0,0,0a32.47,32.47,0,0,1-2.9-7,31.83,31.83,0,0,1-1.18-9,34.19,34.19,0,0,1,1.81-10.3,32.31,32.31,0,0,1,15.84-18,31.34,31.34,0,0,1,13.22-3.35A32.39,32.39,0,0,1,265.45,60a15.33,15.33,0,0,1,1.68.82l1.65.89,1.57,1a12.7,12.7,0,0,1,1.54,1.1l1.48,1.2a15.61,15.61,0,0,1,1.39,1.31c.45.46.94.87,1.35,1.37l1.24,1.47a31.34,31.34,0,0,1,6.31,13.32,32.39,32.39,0,0,1-.15,14.14,31.73,31.73,0,0,1-5.82,12.08,32.23,32.23,0,0,1-20.34,12l-2.71.31c-.89,0-1.77,0-2.64,0a28.48,28.48,0,0,1-5-.43,32.06,32.06,0,0,1-8.65-2.79,33.17,33.17,0,0,1-6.44-4.18l-.49-.41.37.53h0l.05-.13Z" style="fill:#263238"></path><path d="M250.65,98.19a4.58,4.58,0,1,1-3.55-5.42A4.59,4.59,0,0,1,250.65,98.19Z" style="fill:#263238"></path><path d="M250.31,96.56c-.4.19-2.67-4.11-4.3-9.8s-2.74-10.24-2.35-10.39,2.27,4.3,3.87,9.94S250.71,96.38,250.31,96.56Z" style="fill:#263238"></path><path d="M258.43,75c.25.27-2.56,2.87-7.12,3.69a10.6,10.6,0,0,1-5.81-.43c-1.44-.57-2-1.42-1.89-1.55s.9.25,2.22.48a14.75,14.75,0,0,0,5.21-.06C255.14,76.45,258.17,74.61,258.43,75Z" style="fill:#263238"></path><path d="M265.42,96.86a4.58,4.58,0,1,1-3.54-5.42A4.58,4.58,0,0,1,265.42,96.86Z" style="fill:#263238"></path><path d="M265.09,95.23c-.4.19-2.67-4.11-4.3-9.8S258.05,75.19,258.43,75s2.28,4.3,3.88,9.94S265.48,95.05,265.09,95.23Z" style="fill:#263238"></path><path d="M259.44,78c.31.28-2.21,2.93-6.46,3.85s-7.65-.38-7.49-.76,3.34.09,7.14-.79S259.15,77.63,259.44,78Z" style="fill:#263238"></path></g><g id="freepik--character-3--inject-64"><path d="M553.15,126.77a33.94,33.94,0,0,0-4.32-8.32A13.37,13.37,0,0,0,539,103.56a19.65,19.65,0,0,1-4.4-1.07c-1.38-.68-2.42-1.9-3.72-2.71-2.72-1.7-6.17-1.43-9.35-1.11-2.82.28-6.1.87-7.39,3.39a14.31,14.31,0,0,0-18.05,10.45c-.45,1.94-.52,4-1.6,5.73-.87,1.38-2.31,2.29-3.52,3.39a13.46,13.46,0,0,0-3.16,14.84c.83,1.94,2.15,3.69,2.63,5.75s.08,4.36.64,6.44a7.26,7.26,0,0,0,7.09,5.21,6.15,6.15,0,0,0,10.3,5l14.39-5.3a22.62,22.62,0,0,0,12.08,6.13,16.73,16.73,0,0,0,12.94-3.33,13.37,13.37,0,0,0,4.82-12.22,16.82,16.82,0,0,1-.62-4.32,17.19,17.19,0,0,1,1.26-3.83A14.72,14.72,0,0,0,553.15,126.77Z" style="fill:#263238"></path><path d="M507.6,128.42a19,19,0,0,1,19.63-19,19.54,19.54,0,0,1,18.85,18.86c.32,8.87.44,17.8,0,21-1.25,9.61-7.43,12.69-9.89,13.55a13.06,13.06,0,0,1-2.65.32h0a.08.08,0,0,0-.07.07l.89,11.31c.14,7.36-4.74,13.34-12.23,13.53s-12.63-6-12.91-13.42Z" style="fill:#ffbe9d"></path><path d="M542.71,135a1.55,1.55,0,0,1-1.47,1.59,1.5,1.5,0,0,1-1.66-1.35,1.55,1.55,0,0,1,1.47-1.59A1.5,1.5,0,0,1,542.71,135Z" style="fill:#263238"></path><path d="M543.51,130.62c-.18.21-1.4-.63-3.09-.58s-2.9.91-3.09.71.1-.45.63-.85a4.27,4.27,0,0,1,2.46-.82,4.19,4.19,0,0,1,2.47.71C543.42,130.17,543.61,130.53,543.51,130.62Z" style="fill:#263238"></path><path d="M526.89,135.31a1.55,1.55,0,0,1-1.46,1.6,1.5,1.5,0,0,1-1.66-1.35,1.53,1.53,0,0,1,1.46-1.59A1.49,1.49,0,0,1,526.89,135.31Z" style="fill:#263238"></path><path d="M526.93,131.36c-.19.2-1.4-.63-3.09-.58s-2.9.91-3.09.71.09-.46.62-.86a4.37,4.37,0,0,1,2.47-.82,4.16,4.16,0,0,1,2.46.72C526.83,130.9,527,131.26,526.93,131.36Z" style="fill:#263238"></path><path d="M533.44,143.5a11,11,0,0,1,2.72-.56c.43-.05.84-.15.9-.44a2.17,2.17,0,0,0-.32-1.25c-.44-1-.9-2.07-1.38-3.19-1.91-4.54-3.31-8.29-3.12-8.36s1.89,3.55,3.8,8.1l1.32,3.21a2.42,2.42,0,0,1,.27,1.66,1.07,1.07,0,0,1-.69.64,2.94,2.94,0,0,1-.72.11A11.28,11.28,0,0,1,533.44,143.5Z" style="fill:#263238"></path><path d="M533.5,163.14s-6.5.69-14.8-3.92c0,0,2.83,8.4,15,7Z" style="fill:#eb996e"></path><path d="M527.6,128c-.15.45-1.84.28-3.82.57s-3.56.85-3.83.46c-.13-.19.14-.63.77-1.08a6.82,6.82,0,0,1,5.83-.78C527.29,127.42,527.67,127.76,527.6,128Z" style="fill:#263238"></path><path d="M543.07,126.64c-.29.38-1.46,0-2.86,0s-2.58.32-2.86-.07c-.13-.19,0-.57.56-.94a4,4,0,0,1,2.3-.68,4.08,4.08,0,0,1,2.3.7C543,126.07,543.19,126.45,543.07,126.64Z" style="fill:#263238"></path><path d="M539.47,111a20.15,20.15,0,0,1-15.87,14.28c.29-.88.58-1.77.88-2.66a28.51,28.51,0,0,1-17.06,11.69,19.76,19.76,0,0,1,6.72-23.75c7.44-5.08,18.77-5.42,25.29.8" style="fill:#263238"></path><path d="M511.67,130.5a12.33,12.33,0,0,1,1,11.27,19.35,19.35,0,0,0-1.52,3.73,17.32,17.32,0,0,0-.11,3.22,14.23,14.23,0,0,1-1.56,6.33c-.59,1.14-1.5,2.3-2.78,2.41A3,3,0,0,1,504.1,156a8.65,8.65,0,0,1-1.11-2.86c-.54-2.13-1.09-4.26-1.63-6.39a43.11,43.11,0,0,1-1.5-7.78,14.71,14.71,0,0,1,1.32-7.72,8.94,8.94,0,0,1,6-4.81" style="fill:#263238"></path><path d="M532.67,150a2.55,2.55,0,0,1-3.22-.58,3.2,3.2,0,0,1-.38-3.35,1.2,1.2,0,0,1,.53-.6,1.38,1.38,0,0,1,1,.1c.68.25,2,1,3,.71C533.61,146.28,533.64,149.34,532.67,150Z" style="fill:#eb996e"></path><path d="M533,149.93a2.12,2.12,0,0,1-1.73.57,3,3,0,0,1-1.89-.75,3.25,3.25,0,0,1-1.09-2.25,2.42,2.42,0,0,1,.32-1.32,1.54,1.54,0,0,1,1.07-.75,3.55,3.55,0,0,1,2,.44,3.06,3.06,0,0,0,1.66.3s-.12.16-.45.22a2.74,2.74,0,0,1-1.34-.17,3.46,3.46,0,0,0-1.76-.32,1.44,1.44,0,0,0-1,1.58,2.88,2.88,0,0,0,.9,1.91,2.75,2.75,0,0,0,1.59.75A5.86,5.86,0,0,0,533,149.93Z" style="fill:#263238"></path><path d="M498.28,154.12a8.13,8.13,0,0,1-1.6-2.35,10.93,10.93,0,0,1-.64-7.63c.44-1.59,1.39-3.17,1.55-5s-.79-3.77-1.15-5.94a9.65,9.65,0,0,1,4.2-9.17,10.23,10.23,0,0,1,3.48-1.4,17,17,0,0,0,3.48-1,3.94,3.94,0,0,0,2.16-2.45c.35-1.08.43-2.25.83-3.35a9.85,9.85,0,0,1,6.85-6.26,21.36,21.36,0,0,1,5.35-.36,18.18,18.18,0,0,0,4.34-.31,8.55,8.55,0,0,0,3-1.25,5.85,5.85,0,0,0,1.83-2.09,2.5,2.5,0,0,1-.29.68,5,5,0,0,1-1.42,1.57,8.48,8.48,0,0,1-3,1.38,18.14,18.14,0,0,1-4.41.39,21.44,21.44,0,0,0-5.25.41,9.29,9.29,0,0,0-4.92,3.19,9.18,9.18,0,0,0-1.56,2.81c-.37,1-.45,2.18-.82,3.35a4.52,4.52,0,0,1-.9,1.63,4.72,4.72,0,0,1-1.52,1.13,17.5,17.5,0,0,1-3.58,1.06,9.62,9.62,0,0,0-3.31,1.32,9.17,9.17,0,0,0-4,8.67c.31,2.07,1.27,4,1.1,6s-1.19,3.57-1.63,5.11a10.89,10.89,0,0,0,.48,7.44A16.32,16.32,0,0,0,498.28,154.12Z" style="fill:#fff"></path><path d="M524.28,123.45c0-.08,1-.66,2.36-1.87a20.85,20.85,0,0,0,4.5-5.59,20.5,20.5,0,0,0,2.28-6.81c.26-1.83.21-3,.31-3a2.52,2.52,0,0,1,.11.82,13.5,13.5,0,0,1-.05,2.23,17.71,17.71,0,0,1-.63,3.25,18.92,18.92,0,0,1-3.88,7.09,17.81,17.81,0,0,1-2.41,2.29,13.36,13.36,0,0,1-1.85,1.25A2.44,2.44,0,0,1,524.28,123.45Z" style="fill:#fff"></path><path d="M547.65,117.85a25.18,25.18,0,0,1-1.19-2.66,20.91,20.91,0,0,0-3.75-5.85,12,12,0,0,0-5.88-3.45,18.32,18.32,0,0,0-2.88-.28,2.1,2.1,0,0,1,.78-.17,8,8,0,0,1,2.17.09,11.55,11.55,0,0,1,6.19,3.45,18.65,18.65,0,0,1,3.7,6.06A11.54,11.54,0,0,1,547.65,117.85Z" style="fill:#fff"></path><path d="M552.36,441.31l-.8,22.38s22.49,8.32,22.74,12.47l-43.45,0-.19-34.92Z" style="fill:#455a64"></path><path d="M538.13,461.81a1.79,1.79,0,0,0-1.23,2,1.7,1.7,0,0,0,2,1.23,1.87,1.87,0,0,0,1.29-2.15,1.78,1.78,0,0,0-2.22-1.05" style="fill:#e0e0e0"></path><g style="opacity:0.6000000000000001"><path d="M530.85,476.18l0-3.52,41.76,1.3s1.93.84,1.71,2.2Z" style="fill:#fff"></path></g><path d="M552.27,463.47c0,.21-1.07.31-2.11,1s-1.6,1.57-1.8,1.49.12-1.31,1.4-2.11S552.31,463.27,552.27,463.47Z" style="fill:#263238"></path><path d="M556.83,465.35c0,.2-.87.57-1.59,1.46s-.93,1.85-1.14,1.84-.35-1.21.57-2.31S556.82,465.15,556.83,465.35Z" style="fill:#263238"></path><path d="M559.42,470.8c-.19.05-.49-1,.05-2.17s1.54-1.63,1.63-1.45-.52.8-1,1.76S559.63,470.78,559.42,470.8Z" style="fill:#263238"></path><path d="M551.88,458.35c-.09.19-1.06-.1-2.26,0s-2.13.46-2.24.28.78-.94,2.2-1S552,458.18,551.88,458.35Z" style="fill:#263238"></path><path d="M549.75,251s8.15,27.84,8.85,41.93,0,55.42,0,55.42h0c-.09,4-4,105.83-4,105.83l-27,1.34-3.18-97.62-3.77-73-.27-36.9Z" style="fill:#263238"></path><path d="M506.84,441.24l-2.64,22.23s21.71,10.16,21.63,14.32l-43.31-3.58,2.7-34.82Z" style="fill:#455a64"></path><path d="M491,460.49a1.78,1.78,0,0,0-1.39,1.92,1.71,1.71,0,0,0,1.89,1.39,1.87,1.87,0,0,0,1.46-2,1.76,1.76,0,0,0-2.12-1.23" style="fill:#e0e0e0"></path><g style="opacity:0.6000000000000001"><path d="M482.52,474.21l.28-3.52,41.5,4.76s1.85,1,1.53,2.34Z" style="fill:#fff"></path></g><path d="M504.92,463.31c0,.21-1.09.22-2.19.81s-1.72,1.44-1.91,1.34.23-1.29,1.57-2S505,463.12,504.92,463.31Z" style="fill:#263238"></path><path d="M509.31,465.57c0,.2-.92.49-1.71,1.32s-1.08,1.77-1.29,1.74-.24-1.23.76-2.25S509.32,465.36,509.31,465.57Z" style="fill:#263238"></path><path d="M511.44,471.21c-.2,0-.41-1,.23-2.16s1.67-1.49,1.74-1.31-.59.75-1.1,1.68S511.65,471.21,511.44,471.21Z" style="fill:#263238"></path><path d="M505,458.18c-.1.18-1-.19-2.25-.21s-2.17.28-2.26.09.86-.87,2.28-.83S505.08,458,505,458.18Z" style="fill:#263238"></path><path d="M503.76,243.81c-1.39.73-6.78,13.56-11.34,29.86s-8.31,10.74-7.65,33.2c.74,25.41,3.5,41.28,2.28,55.05s.05,36.71-1.95,53-2.93,40.61-2.93,40.61L510,458l12.78-108.21,8.71-99.51Z" style="fill:#263238"></path><path d="M484.73,181.28l19.87-12.19,1.25-5.58,16.34,7.31,6.7,15.68,2.91-17.09,2.62.55,2,5,20.76,4.62-.34,65.07,15.77,167.3s-14.75,7.18-25.31,0-19.54-1.69-25,.42-19.38,2.54-23.19-.84-4.64-4.23-11.41-1.69-24.83,1.68-27.89-1.69c-3.47-3.85,18.94-153.67,21.17-175.08Z" style="fill:#FF725E"></path><path d="M557.15,179.56c13,9.81,14.56,28.36,17.76,50.87l-11.47,14.2-14.57-40Z" style="fill:#FF725E"></path><path d="M551.57,247s8.52,17.5,13.17,15.59a18.34,18.34,0,0,0,3.12-1.89,48.64,48.64,0,0,0,19.9-32.79l1.79-12.33L574.9,211Z" style="fill:#FF725E"></path><path d="M477.24,192a31,31,0,0,0,3.36,23.91c11.23,18.32,30.36,52.24,32.34,55.25,11.95,18.17,55.22,6.22,55.22,6.22l-4.46-58.9-36.1,12S499.68,183,495.68,180.78s-12.28-.38-15.58,3.89C479,186.08,478,188.88,477.24,192Z" style="fill:#FF725E"></path><g style="opacity:0.30000000000000004"><path d="M564.74,236.66l1,9.71c11.76-7.94,19.74-17.2,23.8-30.8C579.61,221.89,571.76,227.21,564.74,236.66Z"></path></g><path d="M595.33,208.55l6-3.51,5.54-6.13a1.15,1.15,0,0,0,0-1.31c-.78-1.08-2.3,0-2.3,0l-4.72,3.7-4.2,2,5.23-4.21,3.71-7s.42-1.61-1.72-.82-5.72,5.63-5.72,5.63L593.06,199l3.07-2.81,2.79-6.94a.56.56,0,0,0-.62-.77c-2.8.61-4.17,4.55-4.17,4.55l-2.66,2.82-10.19,5.27-1.7-.42-.17-3.85s.42-1.41,1-3.84-1.3-2.54-1.3-2.54l-3,4.63-.94,3.54-.65,6.6-1.25,6.24,11.45,6.69,8.62-4.92,11.41-4.59s-.13-1.5-1.14-1.61-4.55,1.31-4.55,1.31" style="fill:#ffbe9d"></path><path d="M589.76,182.65c-.18,0-.31-3.16-.27-7.06s.21-7.05.4-7.05.3,3.16.27,7.06S590,182.66,589.76,182.65Z" style="fill:#263238"></path><path d="M612.92,167.71c.16.1-1.84,3.78-4.47,8.22s-4.88,8-5,7.88,1.84-3.78,4.47-8.22S612.76,167.62,612.92,167.71Z" style="fill:#263238"></path><path d="M622.75,187.05c.06.18-2.44,1.22-5.58,2.34s-5.74,1.88-5.8,1.71,2.43-1.22,5.58-2.34S622.68,186.88,622.75,187.05Z" style="fill:#263238"></path><path d="M628.42,208.21c0,.19-3.61-.41-8-1.34s-7.89-1.81-7.85-2,3.61.42,8,1.34S628.46,208,628.42,208.21Z" style="fill:#263238"></path><path d="M611.51,231.39c-.16.09-2-2.89-4.07-6.65s-3.65-6.89-3.49-7,2,2.89,4.08,6.65S611.68,231.3,611.51,231.39Z" style="fill:#263238"></path><path d="M564.33,221.84l1.43-9.69,5.66-6.89s.8-.89.89,1a13.73,13.73,0,0,1-.48,3.91l6.78-7.33,7.44-5.42s2.13,0,1.89,1.7-5.2,5.66-5.2,5.66l-4.08,4.87,4.63-4.08,6.88-5.54s2,.91,1.32,2.59-6.55,6-6.55,6l-3.06,4.56s9-9.21,9.74-9.09,1.87.57,1.52,2-6.33,6.78-6.33,6.78,4.85-3.36,5.29-3.11,1,.59.43,1.59-5.42,5.55-5.42,5.55l-4.87,6.79-17,14.66Z" style="fill:#ffbe9d"></path><path d="M569.94,234.3a1.09,1.09,0,0,1,.19-.2l.61-.56,2.37-2.11,9-7.86,0,0c1.44-2,3.08-4.32,4.84-6.81h0l0,0a74.13,74.13,0,0,0,5.24-5.35,1.42,1.42,0,0,0,.31-.76c0-.23-.13-.39-.41-.55,0-.13-.39.07-.68.21s-.59.33-.88.5c-1.18.72-2.37,1.51-3.55,2.33l-.36-.46c1.43-1.3,2.89-2.67,4.29-4.14a11.52,11.52,0,0,0,1.86-2.34,1.29,1.29,0,0,0-.06-1.21,1.65,1.65,0,0,0-1.13-.57c.1,0-.1.06-.17.12l-.31.22-.61.5-1.2,1.09c-.8.74-1.59,1.5-2.39,2.27-1.58,1.56-3.18,3.16-4.78,4.8l-.51-.41c1-1.44,2-3,3.06-4.57l0-.05,0,0c1-.77,2.09-1.6,3.13-2.47a23.2,23.2,0,0,0,3-2.82,1.57,1.57,0,0,0,.39-1.53,2.32,2.32,0,0,0-1.19-1.18l.35-.05q-3,2.43-5.93,4.77c-2,1.57-3.74,3.26-5.57,4.83l-.47-.45,4.08-4.86,0,0,0,0a34.71,34.71,0,0,0,4-3.67c.53-.65,1.2-1.37,1.16-2.06s-.85-1.06-1.6-1.08l.18-.06-7.45,5.4,0,0-6.8,7.31-.66.7.25-.94a12.46,12.46,0,0,0,.46-4.14c0-.3-.14-.68-.23-.7s-.34.21-.53.46l-1.21,1.46-4.2,5.05,0-.07c-.49,3.1-.87,5.51-1.14,7.19-.13.78-.24,1.39-.31,1.85a3.24,3.24,0,0,1-.14.62,3.84,3.84,0,0,1,0-.64q.09-.67.24-1.86c.23-1.68.56-4.09,1-7.21v0l0,0,4.14-5.11,1.2-1.47c.11-.13.19-.24.33-.39a.67.67,0,0,1,.66-.22.8.8,0,0,1,.43.53,5.17,5.17,0,0,1,.11.54,13,13,0,0,1-.45,4.33l-.41-.23,6.76-7.36,0,0h0l7.42-5.44.09-.06h.09a3.12,3.12,0,0,1,1.39.36,1.55,1.55,0,0,1,.82,1.29,1.87,1.87,0,0,1-.13.77,4.28,4.28,0,0,1-.33.64,10,10,0,0,1-.84,1.08,37,37,0,0,1-4,3.77l0,0-4.07,4.87-.46-.46c1.83-1.58,3.63-3.27,5.57-4.84l5.94-4.79.17-.14.18.1a3,3,0,0,1,1.54,1.56,2.2,2.2,0,0,1-.49,2.16,22.68,22.68,0,0,1-3.05,2.93c-1,.88-2.11,1.71-3.17,2.5l.08-.09-3.06,4.57-.52-.42q2.42-2.46,4.81-4.8,1.2-1.17,2.4-2.28c.4-.38.81-.74,1.23-1.1.2-.18.41-.35.63-.52s.23-.17.35-.25a1.05,1.05,0,0,1,.54-.23,2.27,2.27,0,0,1,1.62.85,1.89,1.89,0,0,1,.13,1.81,12.2,12.2,0,0,1-2,2.52c-1.43,1.49-2.89,2.85-4.35,4.16l-.36-.46c1.21-.82,2.39-1.61,3.6-2.33.3-.18.6-.35.92-.51a3.68,3.68,0,0,1,.49-.23,1.31,1.31,0,0,1,.34-.08.57.57,0,0,1,.38.12,1.18,1.18,0,0,1,.68,1,2.09,2.09,0,0,1-.42,1.07,71.64,71.64,0,0,1-5.35,5.38l0,0-4.91,6.77,0,0h0l-9.12,7.72-2.44,2-.64.51C570,234.25,570,234.31,569.94,234.3Z" style="fill:#eb996e"></path><path d="M572.05,210.05c.12.16-1.16,1.23-2.19,2.95s-1.44,3.34-1.63,3.3-.08-1.81,1-3.65S572,209.9,572.05,210.05Z" style="fill:#eb996e"></path><path d="M557.16,220.63a6.23,6.23,0,0,1-.09-1.18c0-.88-.05-2-.09-3.23-.06-2.85-.14-6.56-.24-10.67s-.12-7.94-.08-10.67c0-1.36,0-2.47.08-3.23a4.55,4.55,0,0,1,.11-1.19,6.29,6.29,0,0,1,.09,1.19c0,.87,0,1.95.09,3.23.06,2.85.14,6.56.23,10.66s.12,7.94.09,10.67c0,1.37,0,2.47-.08,3.24A4.51,4.51,0,0,1,557.16,220.63Z" style="fill:#263238"></path><path d="M486.86,208.24a4.21,4.21,0,0,1-.9-.6,18.46,18.46,0,0,1-2.16-2,20.39,20.39,0,0,1-4.67-8.48,17.43,17.43,0,0,1-.62-5.34,16.57,16.57,0,0,1,.76-4.32,19.91,19.91,0,0,1,1.07-2.74,3.55,3.55,0,0,1,.53-.94c.09,0-.6,1.42-1.25,3.78a18.61,18.61,0,0,0-.63,4.24,18.2,18.2,0,0,0,.64,5.19,21.85,21.85,0,0,0,4.44,8.37C485.67,207.25,486.92,208.16,486.86,208.24Z" style="fill:#263238"></path><path d="M494.23,203.64a3.35,3.35,0,0,1-.79-.49,16.61,16.61,0,0,1-1.95-1.63,22.47,22.47,0,0,1-2.5-2.84,25.61,25.61,0,0,1-2.36-4,25.14,25.14,0,0,1-1.53-4.37,22.62,22.62,0,0,1-.57-3.74,16.25,16.25,0,0,1,0-2.54,3.07,3.07,0,0,1,.14-.92c.09,0,0,1.32.23,3.43a24.77,24.77,0,0,0,.66,3.65,28.06,28.06,0,0,0,1.54,4.27,27.46,27.46,0,0,0,2.28,3.93,26.27,26.27,0,0,0,2.37,2.86C493.22,202.78,494.29,203.56,494.23,203.64Z" style="fill:#263238"></path><path d="M486.76,367.88c-.14,0,.94-21.39,2.42-47.74s2.81-47.73,2.95-47.72-.94,21.38-2.43,47.75S486.9,367.89,486.76,367.88Z" style="fill:#263238"></path><path d="M489.55,391.44c-.14,0,1.51-17.62,3.69-39.32s4.06-39.29,4.2-39.27-1.51,17.61-3.69,39.32S489.7,391.46,489.55,391.44Z" style="fill:#263238"></path><path d="M504.38,194.77a26,26,0,0,1,1.82,2.31c1.12,1.57,2.74,3.92,4.76,7,4,6.14,9.79,15.11,16.8,26.32l-.21-.08,36.07-12.08.29-.09,0,.3c1.35,17.7,2.88,37.73,4.49,58.9v.21l-.2.06c-1.17.31-2.44.62-3.72.9a129.26,129.26,0,0,1-14.5,2.4,88.88,88.88,0,0,1-14.27.44,58.55,58.55,0,0,1-6.93-.83,37.64,37.64,0,0,1-6.58-1.9,19.83,19.83,0,0,1-10.1-8.33l-22.85-39.5c-3.27-5.61-6.28-10.65-8.95-15.07a30,30,0,0,1-4.05-12.54,31.07,31.07,0,0,1,.31-8.35q.26-1.43.45-2.13c.12-.48.2-.72.2-.72s0,.25-.15.73-.25,1.19-.4,2.13a32.64,32.64,0,0,0-.21,8.32,30,30,0,0,0,4.1,12.41c2.69,4.4,5.72,9.44,9,15,6.62,11.18,14.28,24.62,22.94,39.44a19.38,19.38,0,0,0,9.87,8.12,37.3,37.3,0,0,0,6.5,1.86,57.12,57.12,0,0,0,6.86.82,88,88,0,0,0,14.19-.45A126.7,126.7,0,0,0,564.4,278c1.27-.28,2.54-.58,3.69-.89l-.19.27c-1.59-21.18-3.1-41.2-4.44-58.91l.31.21-36.11,12-.14.05-.07-.13c-7-11.23-12.67-20.23-16.66-26.4-2-3.08-3.59-5.45-4.68-7-.56-.79-1-1.4-1.28-1.78S504.38,194.77,504.38,194.77Z" style="fill:#263238"></path><path d="M495.27,185.6c-.06.06-.7-.52-1.88-1.23A12.72,12.72,0,0,0,483,183.09c-1.32.39-2.09.81-2.13.73a5.57,5.57,0,0,1,2-1.08,11.83,11.83,0,0,1,5.49-.63,11.68,11.68,0,0,1,5.16,1.95A5.47,5.47,0,0,1,495.27,185.6Z" style="fill:#263238"></path><path d="M555.72,279.79a2.06,2.06,0,0,1-.08-.57c0-.44-.08-1-.13-1.64-.1-1.49-.24-3.53-.41-6-.35-5.09-.9-12.11-1.67-19.84s-1.64-14.73-2.31-19.78c-.33-2.48-.59-4.5-.79-6-.08-.66-.15-1.2-.2-1.63a3.46,3.46,0,0,1,0-.57,2.08,2.08,0,0,1,.14.56l.3,1.61c.25,1.41.58,3.44,1,6,.76,5,1.68,12,2.46,19.77s1.26,14.78,1.52,19.87c.13,2.55.21,4.61.24,6,0,.67,0,1.21,0,1.64A2.66,2.66,0,0,1,555.72,279.79Z" style="fill:#fff"></path><path d="M552,280.11a2.69,2.69,0,0,1-.08-.57c0-.43-.07-1-.13-1.64-.1-1.49-.24-3.53-.41-6-.35-5.09-.89-12.1-1.67-19.84s-1.64-14.73-2.3-19.78c-.33-2.47-.6-4.5-.8-6-.08-.67-.14-1.2-.2-1.63a2.12,2.12,0,0,1,0-.58,2.7,2.7,0,0,1,.14.56c.07.43.17,1,.29,1.61.25,1.41.58,3.45,1,6,.76,5,1.68,12,2.46,19.78s1.26,14.77,1.52,19.87c.13,2.54.21,4.61.25,6,0,.67,0,1.21,0,1.64A2.17,2.17,0,0,1,552,280.11Z" style="fill:#fff"></path><path d="M571.47,405.23s-.08.07-.25.16-.44.26-.76.43-.78.36-1.29.59a17.26,17.26,0,0,1-1.85.57,26.67,26.67,0,0,1-12.24-.26c-2.56-.53-5.28-1.37-8.22-2.19a51.14,51.14,0,0,0-9.48-1.92,22.16,22.16,0,0,0-5.2.14,20.23,20.23,0,0,0-5.2,1.54c-3.4,1.41-6.77,3.55-10.8,4.17a13.52,13.52,0,0,1-5.91-.48,48.5,48.5,0,0,1-5.35-2,31.19,31.19,0,0,0-5.15-1.79,23.48,23.48,0,0,0-5.17-.58,58.32,58.32,0,0,0-9.64,1,84.9,84.9,0,0,1-8.43,1.11,31.48,31.48,0,0,1-7-.29,18.51,18.51,0,0,1-5.07-1.58,15.72,15.72,0,0,1-1.69-.95c-.45-.32-.84-.6-1.14-.85l-.64-.58c-.14-.14-.21-.21-.2-.22a16.23,16.23,0,0,0,3.76,2.42,19,19,0,0,0,5,1.47,31.22,31.22,0,0,0,6.95.21c2.58-.17,5.38-.66,8.39-1.17a57.46,57.46,0,0,1,9.72-1,24.12,24.12,0,0,1,5.28.58,31.12,31.12,0,0,1,5.23,1.8,46.61,46.61,0,0,0,5.3,2,13.15,13.15,0,0,0,5.69.47c3.87-.59,7.22-2.7,10.67-4.13a21,21,0,0,1,5.32-1.56,22.58,22.58,0,0,1,5.31-.13,50.1,50.1,0,0,1,9.57,2c2.94.84,5.65,1.69,8.17,2.24a27.34,27.34,0,0,0,12.12.43A18.6,18.6,0,0,0,571.47,405.23Z" style="fill:#fff"></path><path d="M571.47,400.83s-.08.06-.25.16l-.76.43c-.33.18-.78.35-1.29.58a17.12,17.12,0,0,1-1.85.58,27,27,0,0,1-12.24-.26c-2.56-.53-5.28-1.37-8.22-2.19a50.33,50.33,0,0,0-9.48-1.92,22.16,22.16,0,0,0-5.2.14,20.6,20.6,0,0,0-5.2,1.53c-3.4,1.42-6.77,3.56-10.8,4.18a13.67,13.67,0,0,1-5.91-.48,48.5,48.5,0,0,1-5.35-2,31.19,31.19,0,0,0-5.15-1.79,24.12,24.12,0,0,0-5.17-.59,57.24,57.24,0,0,0-9.64,1c-3,.48-5.83,1-8.43,1.11a30.85,30.85,0,0,1-7-.3,18.88,18.88,0,0,1-5.07-1.57,15.72,15.72,0,0,1-1.69-.95c-.45-.33-.84-.61-1.14-.85L461,397a1.1,1.1,0,0,1-.2-.21,16.65,16.65,0,0,0,3.76,2.42,19.06,19.06,0,0,0,5,1.46,31.18,31.18,0,0,0,6.95.22c2.58-.17,5.38-.66,8.39-1.17a58.47,58.47,0,0,1,9.72-1,24.14,24.14,0,0,1,5.28.59,32,32,0,0,1,5.23,1.79,46.65,46.65,0,0,0,5.3,2,13,13,0,0,0,5.69.46c3.87-.59,7.22-2.69,10.67-4.13a21.42,21.42,0,0,1,5.32-1.56,23.12,23.12,0,0,1,5.31-.12,50.89,50.89,0,0,1,9.57,2c2.94.85,5.65,1.7,8.17,2.25a27.16,27.16,0,0,0,12.12.42A18.36,18.36,0,0,0,571.47,400.83Z" style="fill:#fff"></path><g style="opacity:0.30000000000000004"><path d="M488,228.47c4.16,11,8.63,22.37,14.33,32.68s13.68,19.76,24.27,24.91,24.44,5.12,34-1.82l-.48-5.08c-1.91.39-5,.81-7,1.17a69.8,69.8,0,0,1-19.42.58c-6.43-.63-12.86-2.86-17.63-7.21-3.46-3.15-5.9-7.24-8.28-11.26-6.67-11.24-13.1-22.72-19.77-34"></path></g><g style="opacity:0.30000000000000004"><path d="M494.82,328.64c-.43-13.69-3.63-27.2-3.75-40.89l-1.63,25.1c-1.46,22-1.69,43.3-3.15,65.29-.31,4.67-.6,9.5,1,13.87,4,1.43,3.88-16.26,4.79-25C493.5,354,495.21,341.13,494.82,328.64Z"></path></g><g style="opacity:0.30000000000000004"><path d="M551.42,391.9c-2.14-18.33-5-38.08-7.13-56.41l-.12,4.39c0,19.13.34,35.86,2.78,54.83.57,4.44,1.41,9.26,4.75,12.24C552.59,402,552,396.9,551.42,391.9Z"></path></g><path d="M555.58,407.87a2.87,2.87,0,0,1-.86.21,4.71,4.71,0,0,1-2.48-.52,6.49,6.49,0,0,1-2.82-2.83,15.86,15.86,0,0,1-1.47-5.1c-1.18-7.73-2.52-18.47-3.27-30.39s-.83-22.75-.63-30.57c.09-3.91.23-7.08.36-9.26.07-1.06.12-1.89.16-2.51s.08-.88.09-.88a4.61,4.61,0,0,1,0,.88c0,.62,0,1.46-.07,2.52-.06,2.18-.15,5.35-.2,9.26-.1,7.81,0,18.62.79,30.52s2,22.64,3.12,30.38a15.77,15.77,0,0,0,1.35,5,6.43,6.43,0,0,0,2.67,2.78,4.7,4.7,0,0,0,2.37.59C555.28,407.94,555.57,407.84,555.58,407.87Z" style="fill:#263238"></path><path d="M524.24,312.85a8.56,8.56,0,0,1,0,.89c0,.63-.06,1.49-.11,2.56-.12,2.27-.3,5.47-.51,9.41-.48,8-1.14,18.94-1.87,31-.39,6.06-.76,11.83-1.09,17.08a77.3,77.3,0,0,1-1.71,13.89,29.37,29.37,0,0,1-1.76,5.1,21.11,21.11,0,0,1-2.08,3.49,14.34,14.34,0,0,1-1.7,1.93,6.24,6.24,0,0,1-.67.6c-.05-.05.91-.85,2.2-2.65a21.51,21.51,0,0,0,2-3.49,29.29,29.29,0,0,0,1.66-5.07,79.93,79.93,0,0,0,1.59-13.83c.32-5.25.68-11,1.05-17.08.79-12.09,1.5-23,2-31,.29-3.93.52-7.13.68-9.4.09-1.07.16-1.93.21-2.55A4.78,4.78,0,0,1,524.24,312.85Z" style="fill:#263238"></path><path d="M523.32,173.92a91.38,91.38,0,0,1-9.07-3.72,92,92,0,0,1-8.86-4.19,91.38,91.38,0,0,1,9.07,3.72A92,92,0,0,1,523.32,173.92Z" style="fill:#fff"></path><path d="M535.19,172.46c0,.14-.87.53-2,.87a4.87,4.87,0,0,1-2.18.37c0-.14.87-.53,2-.87A5,5,0,0,1,535.19,172.46Z" style="fill:#fff"></path><g style="opacity:0.30000000000000004"><path d="M556.82,194.69c.56,7.34.18,15.93.47,23.37A34,34,0,0,0,556.82,194.69Z"></path></g><path d="M510.45,177.43a46.24,46.24,0,0,1-6.14,3.13,47,47,0,0,1-6.37,2.67,90.88,90.88,0,0,1,12.51-5.8Z" style="fill:#263238"></path><path d="M552.84,183.78A106.75,106.75,0,0,1,538,182.1a106.29,106.29,0,0,1,14.83,1.68Z" style="fill:#263238"></path><path d="M522.85,258.14a4.28,4.28,0,0,1-.23-1.1c-.11-.72-.23-1.76-.31-3.05a44.51,44.51,0,0,1,.53-10.09,42.78,42.78,0,0,1,2.85-9.69c.52-1.19,1-2.13,1.33-2.76a4.25,4.25,0,0,1,.58-1c.08,0-.63,1.46-1.57,3.86a50.64,50.64,0,0,0-2.68,9.64,51.6,51.6,0,0,0-.67,10C522.75,256.54,522.94,258.13,522.85,258.14Z" style="fill:#263238"></path><path d="M517.82,249.71a2.62,2.62,0,0,1,0-.88,18.67,18.67,0,0,1,.33-2.35,27.66,27.66,0,0,1,2.54-7.4,29.66,29.66,0,0,1,4.51-6.4c.69-.73,1.27-1.29,1.69-1.66s.67-.56.69-.53-.81.93-2.1,2.44a34.41,34.41,0,0,0-4.32,6.39,32.16,32.16,0,0,0-2.65,7.24C518.07,248.49,517.91,249.72,517.82,249.71Z" style="fill:#263238"></path></g><g id="freepik--character-2--inject-64"><path d="M386.09,443.31l-1.19,20.85s20.8,8.22,21,12.09l-40.53-.85.52-32.57Z" style="fill:#FF725E"></path><g style="opacity:0.30000000000000004"><path d="M386.09,443.31l-1.19,20.85s20.8,8.22,21,12.09l-40.53-.85.52-32.57Z"></path></g><path d="M372.4,462.14a1.65,1.65,0,0,0-1.18,1.87,1.6,1.6,0,0,0,1.84,1.19,1.75,1.75,0,0,0,1.24-2,1.64,1.64,0,0,0-2.05-1" style="fill:#e0e0e0"></path><path d="M365.33,475.4l.18-3.28,38.79,2s1.79.83,1.56,2.09Z" style="fill:#263238"></path><path d="M385.56,464c0,.2-1,.27-2,.88s-1.52,1.44-1.7,1.36.13-1.22,1.34-1.95S385.61,463.79,385.56,464Z" style="fill:#263238"></path><path d="M389.77,465.82c0,.19-.82.51-1.51,1.33s-.9,1.71-1.1,1.69-.3-1.13.58-2.14S389.77,465.63,389.77,465.82Z" style="fill:#263238"></path><path d="M392.08,471c-.18,0-.44-1,.1-2s1.46-1.49,1.54-1.32-.5.73-.93,1.62S392.28,470.94,392.08,471Z" style="fill:#263238"></path><path d="M385.3,459.19c-.08.18-1-.12-2.11-.06s-2,.38-2.1.21.76-.86,2.08-.9S385.4,459,385.3,459.19Z" style="fill:#263238"></path><path d="M376.05,443.31l-1.18,20.85s20.8,8.22,20.95,12.09l-40.52-.85.52-32.57Z" style="fill:#FF725E"></path><path d="M362.37,462.14a1.65,1.65,0,0,0-1.18,1.87A1.59,1.59,0,0,0,363,465.2a1.75,1.75,0,0,0,1.24-2,1.64,1.64,0,0,0-2-1" style="fill:#e0e0e0"></path><path d="M355.25,476.25l.05-3.15,39,1.06s1.78.83,1.55,2.09Z" style="fill:#263238"></path><path d="M375.53,464c0,.2-1,.27-2,.88s-1.53,1.44-1.71,1.36.14-1.22,1.35-1.95S375.57,463.79,375.53,464Z" style="fill:#263238"></path><path d="M379.74,465.82c0,.19-.82.51-1.51,1.33s-.9,1.71-1.1,1.69-.3-1.13.58-2.14S379.74,465.63,379.74,465.82Z" style="fill:#263238"></path><path d="M382.05,471c-.18,0-.44-1,.09-2s1.47-1.49,1.55-1.32-.51.73-.93,1.62S382.25,470.94,382.05,471Z" style="fill:#263238"></path><path d="M375.27,459.19c-.09.18-1-.12-2.11-.06s-2,.38-2.1.21.76-.86,2.08-.9S375.37,459,375.27,459.19Z" style="fill:#263238"></path><path d="M409.19,246s13,39.49,11.55,48.24-34,160.73-34,160.73h-13.3L384.9,275.45l4-22.6Z" style="fill:#263238"></path><path d="M354.54,246l-.76,2.43c-2.45,7.91-11.52,24-12.66,37.08A96.91,96.91,0,0,0,343,314.9s13.26,66,11.54,73.17-2.43,53.09.15,66.92h21.45L393,302V253.48L354.54,246" style="fill:#263238"></path><path d="M395.31,262.05s0,.17-.06.5-.07.84-.12,1.47c-.1,1.31-.24,3.21-.42,5.65-.36,4.92-.88,12-1.53,20.77-1.32,17.53-3.32,41.74-5.95,68.44s-5.38,50.84-7.49,68.3c-1.07,8.71-1.94,15.77-2.55,20.67-.29,2.42-.53,4.31-.69,5.62-.07.63-.13,1.11-.17,1.46s0,.5,0,.5,0-.17.09-.49.13-.83.22-1.46c.18-1.3.44-3.19.78-5.61.68-4.87,1.6-11.92,2.7-20.65,2.2-17.44,5-41.58,7.64-68.29s4.57-50.93,5.81-68.47c.62-8.77,1.09-15.87,1.37-20.78.14-2.44.25-4.34.33-5.65,0-.63,0-1.12.07-1.47S395.31,262.05,395.31,262.05Z" style="fill:#455a64"></path><path d="M387.11,259.86a1.18,1.18,0,0,0-.65.16,2.88,2.88,0,0,0-1.3,1.32,2.71,2.71,0,0,0,.14,2.74,2.9,2.9,0,0,0,5.35-1.14,2.71,2.71,0,0,0-1-2.56,2.84,2.84,0,0,0-1.73-.67,1.12,1.12,0,0,0-.66.11,5.49,5.49,0,0,0,.65.08,2.88,2.88,0,0,1,1.51.74,2.38,2.38,0,0,1,.76,2.22,2.47,2.47,0,0,1-4.53,1,2.38,2.38,0,0,1-.21-2.34,2.93,2.93,0,0,1,1.08-1.3C386.89,260,387.12,259.9,387.11,259.86Z" style="fill:#455a64"></path><path d="M350.61,260.7a3.91,3.91,0,0,0,.71.88,13.16,13.16,0,0,0,2.4,1.94,14.13,14.13,0,0,0,18.57-2.89,13,13,0,0,0,1.7-2.58,4.06,4.06,0,0,0,.41-1.05,24,24,0,0,1-2.37,3.4,14.21,14.21,0,0,1-18.13,2.82A22.86,22.86,0,0,1,350.61,260.7Z" style="fill:#455a64"></path><path d="M402.43,254.46a2.41,2.41,0,0,0,0,.78,13.51,13.51,0,0,0,.27,2.12,11.9,11.9,0,0,0,3.25,6.19,10.22,10.22,0,0,0,3.31,2.06,9.39,9.39,0,0,0,3.12.6,10.72,10.72,0,0,0,2.13-.15,2.32,2.32,0,0,0,.76-.2c0-.09-1.11.12-2.87,0a9.94,9.94,0,0,1-6.12-2.68,12.47,12.47,0,0,1-3.25-5.91C402.55,255.57,402.52,254.46,402.43,254.46Z" style="fill:#455a64"></path><path d="M349.59,151.16q1-19,2-38a35.78,35.78,0,0,1,1.28-9.16,12.06,12.06,0,0,1,5.54-7.15c2.74-1.43,6.46-1.18,8.57,1.08l-1.49,2q1.85,34.91,1.56,69.87c0,1.74-.07,3.61-1.09,5-1.71,2.38-5.2,2.35-8.11,2.08-2.5-.22-5.34-.64-6.73-2.72a7.75,7.75,0,0,1-1-2.93C348.89,164.68,349.24,157.88,349.59,151.16Z" style="fill:#263238"></path><path d="M361.66,102.19a7,7,0,0,1,4-3.92,4.08,4.08,0,0,1,4.91,1.86L366.24,105a4.36,4.36,0,0,1-1.79,1.67,2.46,2.46,0,0,1-2.37-.13,2.56,2.56,0,0,1-1-2.05A5.38,5.38,0,0,1,361.66,102.19Z" style="fill:#FF725E"></path><path d="M354.43,122.4c.74-8.2,5.08-16.18,12-20.6s16.45-4.88,23.4-.46a24.49,24.49,0,0,1,9.43,12.22c1.82,4.91,1,9,1,14.21,0,2.72-.37,10-2.71,11.38L361,145.7A35.86,35.86,0,0,1,354.43,122.4Z" style="fill:#263238"></path><path d="M355.72,116.11c.82-4.87,5.58-9.61,9.3-12.88,4.23-3.73,4.83-3.56,10.47-3.7,5.95-.15,12.45-.13,17.09,3.6a20.74,20.74,0,0,1,5.59,8.05c3.1,7,2.62,14.91,1.67,22.47s-2.55,14.7-8.74,19.14l-26-4c-5.74-2.12-7.65-8.68-9.28-14.58S354.71,122.15,355.72,116.11Z" style="fill:#263238"></path><path d="M399,121c-.37-7.16-8-14.39-15.11-13.72l-23.16,4.11,0,3.85,2.46,61c9.12,2,13.76,9.55,25.63,4.86l-1.47-23.23s9.16-1.41,11.19-13.3C399.53,138.63,399.35,128.91,399,121Z" style="fill:#ffbe9d"></path><path d="M394.61,130.43a1.53,1.53,0,0,1-1.49,1.53,1.47,1.47,0,0,1-1.56-1.4,1.52,1.52,0,0,1,1.49-1.52A1.46,1.46,0,0,1,394.61,130.43Z" style="fill:#263238"></path><path d="M396.37,126c-.19.19-1.34-.68-3-.69s-2.86.79-3,.59.11-.45.64-.83a4.27,4.27,0,0,1,2.43-.72,4,4,0,0,1,2.37.8C396.3,125.55,396.46,125.91,396.37,126Z" style="fill:#263238"></path><path d="M380,130.43a1.54,1.54,0,0,1-1.5,1.53,1.45,1.45,0,0,1-1.55-1.4,1.52,1.52,0,0,1,1.49-1.52A1.46,1.46,0,0,1,380,130.43Z" style="fill:#263238"></path><path d="M380.2,126.11c-.19.2-1.34-.67-3-.69s-2.86.79-3,.59.11-.45.64-.83a4.2,4.2,0,0,1,2.43-.71,4,4,0,0,1,2.38.79C380.12,125.66,380.29,126,380.2,126.11Z" style="fill:#263238"></path><path d="M386,138.38a10.41,10.41,0,0,1,2.68-.45c.42,0,.82-.12.89-.41a2.13,2.13,0,0,0-.27-1.24l-1.2-3.22c-1.67-4.57-2.87-8.33-2.69-8.39s1.69,3.58,3.36,8.16c.4,1.13.79,2.2,1.15,3.23a2.4,2.4,0,0,1,.2,1.65,1.08,1.08,0,0,1-.7.61,3.28,3.28,0,0,1-.71.09A10.89,10.89,0,0,1,386,138.38Z" style="fill:#263238"></path><path d="M387.33,157.88A31.58,31.58,0,0,1,371,153.4s4.26,8.82,16.61,7.87Z" style="fill:#eb996e"></path><path d="M380.62,121.47c-.16.44-1.8.21-3.74.42s-3.49.72-3.75.31c-.11-.19.17-.61.8-1a6.14,6.14,0,0,1,2.79-.94,6.23,6.23,0,0,1,2.92.38C380.34,120.9,380.7,121.26,380.62,121.47Z" style="fill:#263238"></path><path d="M396.39,120.36c-.3.37-1.43,0-2.79-.07s-2.52.22-2.78-.17c-.11-.19.07-.57.58-.91a4,4,0,0,1,4.49.19C396.36,119.79,396.52,120.18,396.39,120.36Z" style="fill:#263238"></path><path d="M390.94,103.93c4.39,3,7.43,7.87,8.9,13.23l-.72,4.41c-1-2.14-1.16-4.42-3.26-6.61a15.14,15.14,0,0,0-6.81-3.56c-7.94-2-10.61-4.91-14.12-10.09A21,21,0,0,1,390.94,103.93Z" style="fill:#263238"></path><path d="M356.67,115.57a21.84,21.84,0,0,1,17.61-15.41l.65,1.15,6,7a4.18,4.18,0,0,1,1.14,2,3.06,3.06,0,0,1-1.29,2.66c-1.91,1.57-4.59,1.67-7.06,1.73s-5.17.27-7,2c-2.24,2.11-2.19,5.69-1.44,8.68a36.94,36.94,0,0,1,.74,10.85c-.27,2.74-3.9-3.92-6.29-2.54-.66.39,1.13,11.15.44,10.82s-.62-4.2-.85-4.92a85.33,85.33,0,0,1-3.1-11.85A28.49,28.49,0,0,1,356.67,115.57Z" style="fill:#263238"></path><path d="M363.43,136.27a3.56,3.56,0,0,0-5.27-2.91c-1.22.74-2.13,2.19-2,4.94.46,7.34,7.73,5.37,7.73,5.16S363.65,139.31,363.43,136.27Z" style="fill:#ffbe9d"></path><path d="M361.53,140.81s-.12.1-.33.21a1.33,1.33,0,0,1-1,.09,3.18,3.18,0,0,1-1.65-2.74,4.32,4.32,0,0,1,.24-1.86,1.47,1.47,0,0,1,.89-1,.64.64,0,0,1,.78.3c.11.2.08.35.12.36s.14-.14.07-.44a.84.84,0,0,0-.32-.44,1,1,0,0,0-.72-.14,1.79,1.79,0,0,0-1.26,1.23,4.39,4.39,0,0,0-.31,2.07c.15,1.48,1,2.81,2.08,3.05a1.39,1.39,0,0,0,1.15-.27C361.53,141,361.55,140.82,361.53,140.81Z" style="fill:#eb996e"></path><path d="M361.57,105.94a24.4,24.4,0,0,0-2.61,3.7,30.63,30.63,0,0,0-2.15,4.43,31.93,31.93,0,0,0-1.63,5.8,28.42,28.42,0,0,0,.11,10.91,9.17,9.17,0,0,0,.24,1l.23.86a11.77,11.77,0,0,0,.45,1.35l.32.85c.07.19.12.29.12.29a1.31,1.31,0,0,0-.08-.31c-.07-.21-.16-.5-.28-.85a13.89,13.89,0,0,1-.41-1.37l-.22-.86c-.07-.3-.16-.62-.21-1a29.2,29.2,0,0,1-.05-10.83,32.94,32.94,0,0,1,1.6-5.76,32,32,0,0,1,2.1-4.43l.49-.86c.17-.26.34-.51.49-.75l.42-.65c.13-.19.26-.36.38-.52.21-.31.39-.55.52-.73S361.58,106,361.57,105.94Z" style="fill:#455a64"></path><path d="M360.87,108.17s0,.08,0,.23a1.84,1.84,0,0,0,.29.59,4,4,0,0,0,2,1.3c1,.32,2.14.6,3.45.89a31.16,31.16,0,0,0,4.31.63,20.75,20.75,0,0,0,4.36-.13,16.51,16.51,0,0,0,3.46-.85,14.1,14.1,0,0,0,2.17-1c.24-.15.43-.27.55-.36a.75.75,0,0,0,.18-.14s-.28.16-.77.42a15.84,15.84,0,0,1-2.18,1,18,18,0,0,1-3.44.8,21.83,21.83,0,0,1-4.32.11,39.76,39.76,0,0,1-7.72-1.45,4.16,4.16,0,0,1-2-1.2A2.57,2.57,0,0,1,360.87,108.17Z" style="fill:#455a64"></path><path d="M362.19,105.64s0,.06.12.15.21.23.39.39a8.82,8.82,0,0,0,1.62,1.19,13.17,13.17,0,0,0,6.41,1.61,27,27,0,0,0,6.57-.92l1.94-.52a5.31,5.31,0,0,0,.7-.23,4.56,4.56,0,0,0-.73.14l-1.95.46a29.48,29.48,0,0,1-6.53.85,13.51,13.51,0,0,1-6.33-1.53A12.45,12.45,0,0,1,362.19,105.64Z" style="fill:#455a64"></path><path d="M363.69,104.83a3,3,0,0,0,.52.18c.34.1.84.23,1.45.36a23.49,23.49,0,0,0,9.83-.06,14.7,14.7,0,0,0,1.45-.37,2.47,2.47,0,0,0,.52-.19,2.78,2.78,0,0,0-.54.1c-.34.09-.84.19-1.46.31a27.34,27.34,0,0,1-9.77.06c-.61-.11-1.11-.22-1.46-.29A2.78,2.78,0,0,0,363.69,104.83Z" style="fill:#455a64"></path><path d="M373.48,98.58a3.17,3.17,0,0,0,.18.52,13.21,13.21,0,0,0,.62,1.37,20.57,20.57,0,0,0,2.77,4.12,20,20,0,0,0,3.68,3.33,12.16,12.16,0,0,0,1.27.81,2.52,2.52,0,0,0,.49.26,2.11,2.11,0,0,0-.45-.33c-.29-.19-.71-.49-1.22-.86a23.52,23.52,0,0,1-3.6-3.36,22.93,22.93,0,0,1-2.8-4c-.3-.56-.53-1-.68-1.34A1.79,1.79,0,0,0,373.48,98.58Z" style="fill:#455a64"></path><path d="M399.55,114.33s0-.07-.12-.19-.22-.3-.4-.52c-.36-.44-.89-1.06-1.61-1.79a19.16,19.16,0,0,0-2.72-2.3,18.37,18.37,0,0,0-1.81-1.07,15.13,15.13,0,0,0-2.1-.86,19.42,19.42,0,0,0-7.85-.86,18.4,18.4,0,0,0-2.37.38c-.27.06-.48.13-.63.17l-.21.07a5.8,5.8,0,0,0,.86-.15,21.21,21.21,0,0,1,2.37-.31,20.25,20.25,0,0,1,7.76.91,16.87,16.87,0,0,1,6.59,4.14c.73.7,1.28,1.31,1.65,1.73l.43.49Z" style="fill:#455a64"></path><path d="M394,106.45a3,3,0,0,0-.56-.38,7.6,7.6,0,0,0-.68-.38c-.28-.14-.58-.32-.94-.47s-.74-.33-1.17-.48-.9-.3-1.39-.45a20.42,20.42,0,0,0-3.27-.62,20.83,20.83,0,0,0-3.34,0,14.51,14.51,0,0,0-1.44.18,12.11,12.11,0,0,0-1.25.24c-.38.08-.71.19-1,.27a6.54,6.54,0,0,0-.75.25,3.39,3.39,0,0,0-.62.26,4.2,4.2,0,0,0,.65-.18c.2-.06.46-.14.76-.21s.63-.17,1-.23.78-.16,1.23-.22.93-.11,1.44-.15a22.82,22.82,0,0,1,3.29,0,21.15,21.15,0,0,1,3.25.6c.48.14.95.27,1.37.43s.82.3,1.18.45.66.3.94.43.51.25.7.35A6.42,6.42,0,0,0,394,106.45Z" style="fill:#455a64"></path><path d="M357.62,142.65c-.13-.07-.35,0-.6.27a2.9,2.9,0,0,0-.66,1.38,3.14,3.14,0,0,0,0,1.15,3.06,3.06,0,0,0,.55,1.32,3.21,3.21,0,0,0,1.25,1,2.86,2.86,0,0,0,1.91.18,2.93,2.93,0,0,0,1.55-1.06,3.31,3.31,0,0,0,.63-1.48,3.24,3.24,0,0,0-.62-2.43,2.79,2.79,0,0,0-1.17-1c-.34-.14-.56-.12-.66,0s.2.85.44,1.7a2.16,2.16,0,0,1,0,1.26,1.26,1.26,0,0,1-.74.81.83.83,0,0,1-.46,0,1.5,1.5,0,0,1-.52-.32,2,2,0,0,1-.56-1.1C357.78,143.51,357.91,142.8,357.62,142.65Z" style="fill:#FF725E"></path><path d="M384.49,145.34a2.63,2.63,0,0,1-3.34-.6,3.3,3.3,0,0,1-.39-3.48,1.2,1.2,0,0,1,.54-.63,1.43,1.43,0,0,1,1,.11c.71.26,2.12,1,3.14.74C385.47,141.48,385.5,144.65,384.49,145.34Z" style="fill:#eb996e"></path><path d="M384.88,145.27a2.29,2.29,0,0,1-1.8.59,3.1,3.1,0,0,1-1.95-.79,3.33,3.33,0,0,1-1.14-2.33,2.54,2.54,0,0,1,.33-1.36,1.63,1.63,0,0,1,1.11-.78,3.69,3.69,0,0,1,2.05.46,3.27,3.27,0,0,0,1.73.31s-.13.15-.47.22a2.87,2.87,0,0,1-1.39-.19,3.74,3.74,0,0,0-1.83-.33,1.51,1.51,0,0,0-1,1.65,3,3,0,0,0,.94,2,2.93,2.93,0,0,0,1.66.77A5.78,5.78,0,0,0,384.88,145.27Z" style="fill:#263238"></path><path d="M347,176.17l10.94,73.45-18,41.61a2.76,2.76,0,0,1-3.46,1.53c-24.4-8.68-23.74-34.95-22.92-51.17.58-11.52,7.3-53.81,9.08-60.51s10.27-10.49,10.27-10.49l10.2-3.32Z" style="fill:#455a64"></path><path d="M405.57,169.05s15,2.68,19.42,26.79,12,51.82,12.52,58.62c2.49,31-21.65,42.6-21.65,42.6l-16.54-51s3.35-44.65,2.68-46Z" style="fill:#455a64"></path><path d="M452.18,405.69s-14.64,1.14-23.84-2.62-17.95,12.61-27.71,16.37-12.63-5.11-18.69-8.11-7.08,1.5-20.35,4.5-33.92-3.78-33.92-3.78l.4-137.22L338.88,169.4l4.23-2.13,14.46-3.35,4-7.45,9.85,2.82,6.86,18.81,5.66-19,5.73-.09,3.38,5.59,12.5,4.46,9.26,56.48c-.09-.47-2.35,22.8,3,52.16.49,2.71,7.48,29.5,8,31.85C425.78,309.54,450.74,405.4,452.18,405.69Z" style="fill:#455a64"></path><path d="M407.3,183.81a1.73,1.73,0,0,1,.1.49c.05.38.11.84.18,1.41.16,1.22.35,3,.54,5.2.39,4.4.8,10.49,1.07,17.22s.37,12.84.38,17.26c0,2.2,0,4,0,5.23,0,.56,0,1,0,1.42a1.61,1.61,0,0,1-.06.49,2.75,2.75,0,0,1-.05-.49c0-.39,0-.86-.05-1.42,0-1.32-.08-3.08-.14-5.23-.11-4.41-.26-10.51-.53-17.24s-.62-12.81-.92-17.21c-.15-2.14-.28-3.9-.37-5.21,0-.57-.06-1-.08-1.42A1.59,1.59,0,0,1,407.3,183.81Z" style="fill:#263238"></path><g style="opacity:0.30000000000000004"><path d="M394.41,252a3.05,3.05,0,0,0-.71-2.35,3.22,3.22,0,0,0-1.81-.58c-4.24-.55-8.17-2.5-12.34-3.45a33,33,0,0,0-17.08,1c-5.5,1.72-9.51,2.31-14.28,5.56l-1.14,5.66a24.17,24.17,0,0,0,13-.94c2.74-1,5.34-2.48,8.23-2.84,3.37-.41,6.7.75,10,1.6,4.39,1.13,9.06,1.7,13.42.47a4,4,0,0,0,2.13-1.19A4.52,4.52,0,0,0,394.41,252Z"></path></g><path d="M344.64,227.91a1.51,1.51,0,0,1-.05-.5c0-.4,0-.88,0-1.46,0-1.34-.09-3.15-.15-5.35-.13-4.51-.38-10.75-.81-17.63s-1-13.1-1.41-17.59c-.22-2.19-.39-4-.53-5.32-.05-.58-.09-1.06-.13-1.45a2,2,0,0,1,0-.51,1.52,1.52,0,0,1,.12.49l.22,1.44c.19,1.25.44,3.06.7,5.31.53,4.49,1.12,10.71,1.56,17.6s.63,13.13.66,17.65c0,2.27,0,4.1,0,5.36,0,.58,0,1.06-.05,1.46A1.51,1.51,0,0,1,344.64,227.91Z" style="fill:#263238"></path><g style="opacity:0.30000000000000004"><path d="M394.36,212.28a3.27,3.27,0,0,0-3.24-2.57,3.21,3.21,0,0,0-2.35,1.83,9.5,9.5,0,0,0-.78,3c-.57,3.86-1.15,7.79-.57,11.65l5.05.46c.59-2.88,1.11-7,1.7-9.9A9.51,9.51,0,0,0,394.36,212.28Z"></path></g><path d="M387.18,225.1c-.15,0-.17-8.81-.06-19.68s.32-19.68.46-19.68.17,8.81.06,19.69S387.32,225.11,387.18,225.1Z" style="fill:#263238"></path><path d="M397.82,206.16a19.12,19.12,0,0,1-.81,2.91c-.55,1.78-1.28,4.24-2,7s-1.25,5.27-1.63,7.09a19.06,19.06,0,0,1-.69,2.94,14.73,14.73,0,0,1,.32-3c.29-1.84.79-4.38,1.5-7.15s1.5-5.22,2.14-7A14.88,14.88,0,0,1,397.82,206.16Z" style="fill:#263238"></path><path d="M378.77,352.15a113.06,113.06,0,0,1-2.15-14.87c-.1-1.16-.2-2.37-.3-3.64s-.13-2.58-.2-3.94c-.17-2.73-.19-5.65-.25-8.72,0-6.14.05-12.89.37-20,.6-14.16,1.57-26.95,2-36.22.23-4.63.35-8.38.41-11,0-1.27,0-2.27.05-3,0-.32,0-.57,0-.78a.9.9,0,0,1,0-.26,1.33,1.33,0,0,1,0,.26l0,.78c0,.72,0,1.72,0,3,0,2.59-.05,6.35-.24,11-.34,9.28-1.25,22.07-1.85,36.22-.32,7.07-.43,13.81-.41,19.94,0,3.06,0,6,.2,8.7.06,1.36.11,2.67.17,3.94s.18,2.47.26,3.63c.14,2.31.4,4.39.6,6.22.1.92.2,1.77.28,2.55s.24,1.49.34,2.13c.19,1.26.34,2.24.45,3,0,.31.07.57.1.77A1.08,1.08,0,0,1,378.77,352.15Z" style="fill:#263238"></path><path d="M339.59,292.81c-.14,0,2-10.72,4.8-23.88s5.16-23.81,5.3-23.78-2,10.72-4.8,23.88S339.73,292.84,339.59,292.81Z" style="fill:#263238"></path><path d="M362.28,172.5a91.34,91.34,0,0,1-9.45,2.43,90.57,90.57,0,0,1-9.56,1.93,89.85,89.85,0,0,1,9.44-2.43A89.91,89.91,0,0,1,362.28,172.5Z" style="fill:#263238"></path><path d="M334.39,194.78s-.11-.25-.22-.71a12.66,12.66,0,0,1-.3-2,20,20,0,0,1,3.33-12.73,13.15,13.15,0,0,1,1.24-1.6c.32-.35.51-.53.54-.51s-.6.87-1.47,2.31a22.88,22.88,0,0,0-2.55,6,23.34,23.34,0,0,0-.72,6.5C334.29,193.73,334.48,194.76,334.39,194.78Z" style="fill:#263238"></path><path d="M407.3,174.08a12.78,12.78,0,0,1-2.83,0,61.55,61.55,0,0,1-6.81-.67A60.35,60.35,0,0,1,391,172a13.41,13.41,0,0,1-2.69-.89,17.63,17.63,0,0,1,2.78.54c1.7.37,4.06.84,6.68,1.25s5,.66,6.75.83A19.57,19.57,0,0,1,407.3,174.08Z" style="fill:#263238"></path><path d="M430.74,281.55a2.77,2.77,0,0,1-.26.64c-.21.41-.44,1.05-.89,1.81a27.94,27.94,0,0,1-4.45,6,30.61,30.61,0,0,1-9.2,6.57,29.44,29.44,0,0,1-13.84,2.81h-.18l-.05-.17c-.82-2.85-1.62-5.82-2.34-8.89A164.72,164.72,0,0,1,395.2,259c-.17-4.06-.07-7.35,0-9.61.06-1.1.12-2,.15-2.61,0-.27,0-.5.06-.68a.56.56,0,0,1,0-.23,2.07,2.07,0,0,1,0,.23v.68c0,.64,0,1.51-.06,2.61,0,2.27,0,5.55.17,9.59A174.72,174.72,0,0,0,400,290.21c.73,3.06,1.52,6,2.33,8.87l-.23-.19a29.2,29.2,0,0,0,13.63-2.71,30.66,30.66,0,0,0,9.14-6.39,29.65,29.65,0,0,0,4.54-5.88c.46-.73.72-1.36.95-1.76A4.82,4.82,0,0,1,430.74,281.55Z" style="fill:#263238"></path><g style="opacity:0.30000000000000004"><path d="M395.77,267.34A103.83,103.83,0,0,0,402.08,303c.52,1.43,1.21,3,2.61,3.6s3.17,0,4.63-.7a52.09,52.09,0,0,0,11-6.28c1.66-1.33,1.56-6.91,1.56-6.91-5.29,4.1-7.19,4.31-14.72,6.22-.58.15-4.53.48-5.05.21s-.42-1.46-.6-2.09c-3.39-11.66-4.73-24-5.84-36"></path></g><path d="M342.71,244.93c0,.16-3.45.41-7.65,1.16a40.3,40.3,0,0,0-5.28,1.3c-1.32.43-2.1.82-2.14.75a6.27,6.27,0,0,1,2-1.1,28,28,0,0,1,5.32-1.46,47,47,0,0,1,5.46-.66A8.79,8.79,0,0,1,342.71,244.93Z" style="fill:#263238"></path><path d="M449.6,395.36a8.54,8.54,0,0,1-1,.86,11.11,11.11,0,0,1-3.32,1.7,18,18,0,0,1-5.86.81,41.36,41.36,0,0,1-7.77-.93,49.79,49.79,0,0,0-9.34-1.19,16.91,16.91,0,0,0-5.12.79,16.52,16.52,0,0,0-4.78,2.7c-1.5,1.16-2.91,2.52-4.38,3.89a31.16,31.16,0,0,1-4.81,3.86,11.7,11.7,0,0,1-6.14,1.84,18.67,18.67,0,0,1-6.43-1.45c-2.08-.78-4.06-1.7-6.12-2.27a32.54,32.54,0,0,0-6.18-1.18,58.8,58.8,0,0,0-11.93.35c-3.8.44-7.39,1-10.77,1.48a76.24,76.24,0,0,1-9.45.73,41.94,41.94,0,0,1-7.81-.59,29.44,29.44,0,0,1-5.69-1.63,20.64,20.64,0,0,1-2-.91,12.81,12.81,0,0,1-1.37-.78l-.82-.53a1.66,1.66,0,0,1-.26-.19,1.36,1.36,0,0,1,.29.15l.84.48a15.41,15.41,0,0,0,1.39.73,19.18,19.18,0,0,0,2,.86,29.86,29.86,0,0,0,5.66,1.53,41.8,41.8,0,0,0,7.75.51,78.5,78.5,0,0,0,9.41-.79c3.36-.46,6.95-1.08,10.76-1.53a59,59,0,0,1,12-.38,32.93,32.93,0,0,1,6.28,1.19c2.1.59,4.1,1.51,6.15,2.28a17.89,17.89,0,0,0,6.25,1.42,11.1,11.1,0,0,0,5.87-1.76c3.5-2.18,6.1-5.35,9.17-7.69a16.64,16.64,0,0,1,4.92-2.75,17.07,17.07,0,0,1,5.27-.79,50.55,50.55,0,0,1,9.41,1.25,41.49,41.49,0,0,0,7.71,1,18.35,18.35,0,0,0,5.79-.71A12.69,12.69,0,0,0,449.6,395.36Z" style="fill:#fff"></path><path d="M449.6,390a8.54,8.54,0,0,1-1,.86,11.35,11.35,0,0,1-3.32,1.7,18.24,18.24,0,0,1-5.86.81,40.62,40.62,0,0,1-7.77-.94,50.66,50.66,0,0,0-9.34-1.18,17,17,0,0,0-5.13.79,16.61,16.61,0,0,0-4.77,2.7c-1.5,1.16-2.91,2.52-4.38,3.89a31.65,31.65,0,0,1-4.81,3.86,11.73,11.73,0,0,1-6.14,1.84,18.62,18.62,0,0,1-6.43-1.45c-2.08-.78-4.07-1.7-6.12-2.27a32.54,32.54,0,0,0-6.18-1.18,58.78,58.78,0,0,0-11.93.35c-3.8.44-7.39,1-10.77,1.48a78.38,78.38,0,0,1-9.46.73,42.08,42.08,0,0,1-7.81-.59,29.32,29.32,0,0,1-5.68-1.63,19.54,19.54,0,0,1-2-.91,12.81,12.81,0,0,1-1.37-.78l-.82-.53a1.66,1.66,0,0,1-.26-.19,1.36,1.36,0,0,1,.29.15l.84.48a14.16,14.16,0,0,0,1.39.73,19.94,19.94,0,0,0,2,.86,30.07,30.07,0,0,0,5.66,1.53,41.92,41.92,0,0,0,7.76.51,78.34,78.34,0,0,0,9.4-.79c3.37-.46,7-1.08,10.77-1.53a59,59,0,0,1,12-.38,33.08,33.08,0,0,1,6.28,1.19c2.09.59,4.09,1.51,6.15,2.28a18.29,18.29,0,0,0,6.25,1.42,11.1,11.1,0,0,0,5.87-1.76c3.5-2.18,6.09-5.35,9.16-7.69a17.08,17.08,0,0,1,4.93-2.76,17.29,17.29,0,0,1,5.26-.78,50.55,50.55,0,0,1,9.42,1.25,41.4,41.4,0,0,0,7.7,1,18.42,18.42,0,0,0,5.8-.71A12.69,12.69,0,0,0,449.6,390Z" style="fill:#fff"></path><path d="M338.67,292.75a2.16,2.16,0,0,1-.52.09,7.53,7.53,0,0,1-1.52,0,15,15,0,0,1-5.33-1.68,18.64,18.64,0,0,1-3.25-2.11c-.55-.45-1.05-.95-1.59-1.46s-1.07-1-1.61-1.61a39.06,39.06,0,0,1-11.3-25.64c-.12-1.17-.17-2.23-.2-3.17s-.06-1.74-.05-2.39,0-1.11,0-1.52a2.29,2.29,0,0,1,.05-.53,1.93,1.93,0,0,1,.06.53c0,.41,0,.9.07,1.51s.06,1.46.14,2.39.13,2,.27,3.15a44,44,0,0,0,5.24,17.35,43.46,43.46,0,0,0,6.05,8c.53.56,1.05,1.11,1.58,1.61s1,1,1.54,1.46a19.34,19.34,0,0,0,3.15,2.12,16,16,0,0,0,5.18,1.8C337.94,292.81,338.67,292.69,338.67,292.75Z" style="fill:#263238"></path><g style="opacity:0.30000000000000004"><path d="M340,290.5c-.17.63-.13,2-.64,2.42-.81.66-3.36-.09-4.35-.43a30.72,30.72,0,0,1-7-3.67v4.1c3.23,3.22,7.29,4.77,11.77,5.67a2.78,2.78,0,0,0,2.67-.45,2.94,2.94,0,0,0,.53-1.82l1.38-23.45C342.81,278.7,341.58,284.67,340,290.5Z"></path></g><path d="M387.26,301.13a1.61,1.61,0,0,1-.1-.49c-.05-.38-.11-.85-.19-1.42-.15-1.23-.34-3-.56-5.23-.42-4.42-.9-10.54-1.22-17.31s-.41-12.91-.39-17.35c0-2.22,0-4,.07-5.26,0-.57,0-1,.05-1.43a1.61,1.61,0,0,1,.06-.49,1.91,1.91,0,0,1,0,.49c0,.39,0,.86,0,1.43,0,1.32.06,3.1.1,5.26.08,4.44.23,10.56.54,17.33s.74,12.88,1.07,17.3c.16,2.16.3,3.93.4,5.24,0,.57.06,1.05.09,1.43A1.73,1.73,0,0,1,387.26,301.13Z" style="fill:#263238"></path><g style="opacity:0.30000000000000004"><path d="M392.55,341.17a643.91,643.91,0,0,1-8-78.13l-.16-.6a196.24,196.24,0,0,0,3.93,79.06c.44,1.69,1.81,3.83,3.36,3C392.8,344,392.76,342.4,392.55,341.17Z"></path></g><path d="M365.13,318.3a6.31,6.31,0,0,1,.06.86c0,.61.05,1.44.09,2.47.05,2.15.17,5.26.37,9.09.39,7.67,1.24,18.26,2.88,29.86s3.78,22,5.54,29.49c.88,3.73,1.63,6.75,2.17,8.83.26,1,.46,1.81.61,2.4a7.72,7.72,0,0,1,.18.85,4.59,4.59,0,0,1-.28-.82c-.17-.59-.41-1.38-.7-2.38-.61-2.06-1.41-5.07-2.33-8.8-1.86-7.46-4.05-17.87-5.71-29.49s-2.43-22.24-2.73-29.92c-.15-3.84-.21-6.95-.2-9.1,0-1,0-1.87,0-2.48A4.11,4.11,0,0,1,365.13,318.3Z" style="fill:#263238"></path><path d="M326.42,189.89a2.76,2.76,0,0,1,0-.89c.07-.56.18-1.38.36-2.38a22.34,22.34,0,0,1,2.58-7.53,11.34,11.34,0,0,1,6.1-5,7.39,7.39,0,0,1,2.41-.36,2.34,2.34,0,0,1,.88.13,12.49,12.49,0,0,0-3.17.58,11.59,11.59,0,0,0-5.78,5,25.08,25.08,0,0,0-2.66,7.33A28.47,28.47,0,0,1,326.42,189.89Z" style="fill:#263238"></path><g style="opacity:0.30000000000000004"><path d="M338.89,175.19a17.38,17.38,0,0,0-7.72,8.27,47,47,0,0,0-3.3,11,21.31,21.31,0,0,0-.59,4.76c0,1.6-.38,4.14,1.44,4.49,1.52-.56,1.2-10.5,2.76-15.53,1.6-5.19,3-10.15,7.41-13"></path></g><path d="M424.47,252a4.76,4.76,0,0,1-1.14-.43l-3-1.33c-2.56-1.11-6.12-2.59-10.12-4s-7.67-2.61-10.35-3.39l-3.17-.93a5.9,5.9,0,0,1-1.15-.39,4.82,4.82,0,0,1,1.2.19c.77.16,1.87.42,3.22.77,2.71.7,6.42,1.8,10.43,3.26s7.56,3,10.09,4.2c1.26.6,2.27,1.1,3,1.47A5.59,5.59,0,0,1,424.47,252Z" style="fill:#263238"></path><path d="M423.61,244.39c0,.16-2.94,0-6.51.46s-6.35,1.39-6.41,1.24a5.83,5.83,0,0,1,1.79-.75,26.18,26.18,0,0,1,4.55-1,25.4,25.4,0,0,1,4.66-.2A5.82,5.82,0,0,1,423.61,244.39Z" style="fill:#263238"></path><g style="opacity:0.30000000000000004"><path d="M342.71,244.93c-5.08-.24-11.22-.77-16.12.6-1.88.53-3.82,1.4-4.81,3.08a1.67,1.67,0,0,0-.27,1.31,1.41,1.41,0,0,0,1.49.82,4.51,4.51,0,0,0,1.69-.69c5.56-3.17,11.62-5.29,18-5.12"></path></g><path d="M332.15,291.23a1.58,1.58,0,0,1,0-.5c.05-.38.11-.84.18-1.4.16-1.22.44-3,.84-5.14a168.38,168.38,0,0,1,9.62-32.91c.83-2,1.54-3.67,2.06-4.78l.61-1.28c.14-.29.22-.44.24-.43a1.39,1.39,0,0,1-.15.47l-.51,1.32c-.46,1.14-1.12,2.79-1.91,4.84-1.57,4.09-3.61,9.8-5.49,16.22s-3.24,12.33-4.11,16.62c-.44,2.15-.78,3.9-1,5.1-.11.56-.2,1-.28,1.39A1.79,1.79,0,0,1,332.15,291.23Z" style="fill:#fff"></path><path d="M342.71,244.93s0,.16-.17.45l-.58,1.23c-.52,1.06-1.24,2.61-2.1,4.54a128.4,128.4,0,0,0-5.69,15.46,160.42,160.42,0,0,0-3.76,16.05c-.37,2.08-.66,3.77-.85,4.93-.09.54-.17,1-.23,1.34a1.6,1.6,0,0,1-.12.47,1.76,1.76,0,0,1,0-.48c0-.37.09-.82.14-1.35.13-1.18.36-2.88.69-5a131.4,131.4,0,0,1,3.62-16.14A110.74,110.74,0,0,1,339.53,251c.9-1.92,1.67-3.45,2.25-4.48.26-.47.48-.87.67-1.19S342.69,244.92,342.71,244.93Z" style="fill:#fff"></path><path d="M409.82,298.27a2.41,2.41,0,0,1-.07-.57c0-.43-.06-1-.1-1.63-.07-1.41-.2-3.46-.39-6-.38-5-1.13-12-2.48-19.6s-3.07-14.38-4.46-19.25c-.69-2.43-1.28-4.39-1.7-5.74-.19-.63-.34-1.15-.47-1.56a3,3,0,0,1-.13-.56,1.83,1.83,0,0,1,.23.52l.56,1.54c.49,1.33,1.13,3.28,1.87,5.7a170.07,170.07,0,0,1,4.61,19.26,168,168,0,0,1,2.33,19.67c.15,2.53.22,4.58.23,6v1.64A2.12,2.12,0,0,1,409.82,298.27Z" style="fill:#fff"></path><path d="M403.67,243.8a2.05,2.05,0,0,1,.23.51l.56,1.5c.48,1.3,1.11,3.21,1.84,5.58a148.25,148.25,0,0,1,4.41,18.86,145.81,145.81,0,0,1,1.87,19.29c.07,2.48.08,4.49,0,5.88l-.05,1.59a2.05,2.05,0,0,1-.06.56,2.44,2.44,0,0,1-.05-.56l0-1.59c0-1.39-.08-3.39-.19-5.86a170.76,170.76,0,0,0-2-19.22A174,174,0,0,0,406,251.49c-.68-2.38-1.26-4.3-1.68-5.62-.19-.61-.34-1.12-.47-1.52A3.07,3.07,0,0,1,403.67,243.8Z" style="fill:#fff"></path><path d="M391.64,162.36a41.84,41.84,0,0,1-9.24,1.72,42.13,42.13,0,0,1,9.24-1.72Z" style="fill:#fff"></path><path d="M372.9,162.75a43.91,43.91,0,0,1-6.59-1.13,43,43,0,0,1-6.49-1.65,43.25,43.25,0,0,1,6.59,1.14A42.32,42.32,0,0,1,372.9,162.75Z" style="fill:#fff"></path><path d="M339.81,245.08,339,229.22l33.65-3.39s6.06.81,6.87-2.82l33.38,8.21L410.61,246l-14.73-5.12Z" style="fill:#263238"></path><path d="M341.32,226l-1.51,3.13,35.53-3.3.26,0a3.55,3.55,0,0,0,3.67-2.17h0L412,231l.86-1.44s-20.87-4-24.5-6.56-10.09-5.42-12.45-1.22a10,10,0,0,0-10.7.54C359.46,226.1,341.32,226,341.32,226Z" style="fill:#fafafa"></path><path d="M349.69,245.14l3.16-.9s-.36-4.06.64-5.69a6.86,6.86,0,0,1,2.34-2.35s-.9-2.53,1-2.26,3.43.45,3.52,2.17a6.44,6.44,0,0,1-1.08,3.42l19-8.39s5.24-2.35,6-1-2.08,3-2.08,3l-6.24,4.3s11.75-5.84,12.74-5.39,2.26.82,1.09,2.17a16.85,16.85,0,0,1-4.07,2.8s-13.91,9.85-17.17,11-11.74,4.42-11.74,4.42l-8.77,1Z" style="fill:#ffbe9d"></path><path d="M359.45,243.07l9.63,4.71a29.31,29.31,0,0,0,8.65,2.62c5.59.74,15.77,3.58,17.52,3.29,0,0,.16-9,.43-11.15a18.71,18.71,0,0,0,.26-4.75c-.18-1.18-2.61-5-5-5.66s-2.84.67-2.53,1.81a17.5,17.5,0,0,0,1.74,3.34v1.54l-4.36-.54s-11-7.41-12.29-7.86-4.33-.18-3.61,1.08,8.94,7.95,8.94,7.95l-12.1-7.59s-3.44-.45-4.16.54c0,0-1.17,1.36-.54,2.53s10.3,9.4,10.3,9.4l-5.33-.81S360.8,240.09,359.45,243.07Z" style="fill:#ffbe9d"></path><path d="M395.25,253.69a2.1,2.1,0,0,1-.7,0,17.28,17.28,0,0,1-2-.25c-1.74-.3-4.28-.85-7.5-1.54-1.62-.34-3.4-.72-5.35-1.06-1-.17-2-.29-3.07-.47a27.13,27.13,0,0,1-3.25-.76,31.66,31.66,0,0,1-3.36-1.21c-1.13-.49-2.23-1.07-3.39-1.62l-7.27-3.54-.2-.09.09-.21A2.28,2.28,0,0,1,361,241.7a5.55,5.55,0,0,1,2.15.07,16.23,16.23,0,0,1,4.05,1.54l-.08,0,5.33.81-.2.43c-2-1.71-4.07-3.49-6.15-5.35-1-.93-2.09-1.87-3.12-2.88-.25-.25-.51-.51-.75-.79a1.82,1.82,0,0,1-.55-1.07,3.11,3.11,0,0,1,.77-2.2v0a1.72,1.72,0,0,1,1-.56,4.51,4.51,0,0,1,1-.16,12.64,12.64,0,0,1,2,0l.39,0h.05l.06,0,12.1,7.6-.3.41c-2.26-1.85-4.45-3.68-6.52-5.54-.52-.46-1-.93-1.52-1.42a10.4,10.4,0,0,1-.72-.76,1.77,1.77,0,0,1-.31-.5.77.77,0,0,1,.06-.69,1.78,1.78,0,0,1,1-.6,5.68,5.68,0,0,1,3.08.12c2.35,1.28,4.38,2.7,6.42,4l5.75,3.84-.08,0,4.35.56-.21.18c0-.55,0-1,0-1.54l0,.1q-.65-1-1.17-2a4.52,4.52,0,0,1-.66-2.16,1.42,1.42,0,0,1,.49-1,1.71,1.71,0,0,1,1-.36,4.19,4.19,0,0,1,1.94.44,8.49,8.49,0,0,1,2.63,2.34,11.81,11.81,0,0,1,1.52,2.52,3.14,3.14,0,0,1,.26,1.24,9.76,9.76,0,0,1,0,1.09c-.05.68-.12,1.25-.18,1.71s-.11.77-.15,1a1.57,1.57,0,0,1-.07.35,1.84,1.84,0,0,1,0-.35l.1-1.05c0-.45.1-1,.13-1.69,0-.34,0-.7,0-1.08a3.11,3.11,0,0,0-.27-1.17,11.59,11.59,0,0,0-1.54-2.45,8.18,8.18,0,0,0-2.55-2.23,3.83,3.83,0,0,0-1.81-.39,1.13,1.13,0,0,0-1.21,1.11,4.16,4.16,0,0,0,.64,2c.34.66.74,1.32,1.16,2l0,0v.05c0,.49,0,1,0,1.54V239l-.21,0-4.36-.53h-.05l0,0-5.77-3.8c-2-1.29-4.13-2.74-6.36-3.94a4.31,4.31,0,0,0-1.84-.24,2.48,2.48,0,0,0-1.64.54c-.11.15,0,.38.21.63s.45.48.69.72c.48.47,1,.93,1.5,1.4,2.07,1.83,4.27,3.66,6.53,5.5l-.3.42-12.11-7.59.1,0-.36,0a11.71,11.71,0,0,0-2,0,2.43,2.43,0,0,0-1.59.51v0a2.51,2.51,0,0,0-.65,1.78,1.31,1.31,0,0,0,.42.8c.23.26.47.51.73.76,1,1,2.05,1.94,3.09,2.87,2.08,1.86,4.13,3.64,6.13,5.35l.67.57-.87-.13-5.33-.82h0l0,0a15.66,15.66,0,0,0-3.91-1.49,5.22,5.22,0,0,0-2-.09,1.85,1.85,0,0,0-1.39,1l-.11-.3,7.25,3.57c1.16.56,2.27,1.15,3.37,1.64a31.57,31.57,0,0,0,3.3,1.21,28.91,28.91,0,0,0,3.22.78c1,.18,2.08.31,3.05.49,2,.36,3.74.75,5.35,1.11,3.22.73,5.75,1.33,7.48,1.67.87.16,1.54.29,2,.32S395.25,253.66,395.25,253.69Z" style="fill:#eb996e"></path><path d="M363.23,232.74a14.92,14.92,0,0,1,1.94,1.51c1.16,1,2.79,2.26,4.67,3.6s3.62,2.46,4.91,3.25a16,16,0,0,1,2.06,1.34,9.36,9.36,0,0,1-2.24-1,47.75,47.75,0,0,1-5-3.14,46.06,46.06,0,0,1-4.6-3.75A10.59,10.59,0,0,1,363.23,232.74Z" style="fill:#eb996e"></path></g><g id="freepik--character-1--inject-64"><path d="M290.94,158.86c-.87-2.55-2.9-5.64-5.45-4.75-1.64.58-2.26,2.55-2.61,4.27a133.63,133.63,0,0,0,5.49,73.13l2.64-.4c5.48-3.9,6.82-11.4,7.22-18.12A142.54,142.54,0,0,0,290.94,158.86Z" style="fill:#FF725E"></path><g style="opacity:0.30000000000000004"><path d="M290.94,158.86c-.87-2.55-2.9-5.64-5.45-4.75-1.64.58-2.26,2.55-2.61,4.27a133.63,133.63,0,0,0,5.49,73.13l2.64-.4c5.48-3.9,6.82-11.4,7.22-18.12A142.54,142.54,0,0,0,290.94,158.86Z"></path></g><path d="M168.32,135.77a81.66,81.66,0,0,1-6.85-12.42,28.66,28.66,0,0,1-2.38-13.85c.08-.72,1-5.61,1.74-5.72.51-.08.28,4.32.64,4.69,3.43,3.49,5.33,8.25,6.16,13.08a64.41,64.41,0,0,1,.69,14.22" style="fill:#263238"></path><path d="M200.47,154.65c-.8-3.25-1.41-5.82-1.39-5.83s10.83-3.95,8.75-15.15c-1-5.41-4-16.38-6.79-26.28a21.21,21.21,0,0,0-24.55-15l-1.08.21c-11.49,3-15.37,14.42-12.07,25.82l10.29,40.25L183.81,166a10.72,10.72,0,0,0,16.66-11.31Z" style="fill:#8e5f5b"></path><path d="M199.15,148.81a27.54,27.54,0,0,1-15.4-1.41s5.16,7.42,16.11,4.2Z" style="fill:#664442"></path><path d="M200.14,117.12a1.62,1.62,0,0,1-1.22,1.91,1.55,1.55,0,0,1-1.93-1.11,1.63,1.63,0,0,1,1.22-1.92A1.56,1.56,0,0,1,200.14,117.12Z" style="fill:#263238"></path><path d="M199.64,112.48c-.16.25-1.54-.41-3.26-.06s-2.81,1.45-3,1.28,0-.49.48-1a4.39,4.39,0,0,1,2.38-1.28,4.17,4.17,0,0,1,2.64.31C199.46,112,199.72,112.37,199.64,112.48Z" style="fill:#263238"></path><path d="M184.22,120.65a1.63,1.63,0,0,1-1.22,1.92,1.57,1.57,0,0,1-1.93-1.11,1.64,1.64,0,0,1,1.22-1.92A1.56,1.56,0,0,1,184.22,120.65Z" style="fill:#263238"></path><path d="M183,116.51c-.16.25-1.55-.4-3.26-.06s-2.81,1.46-3,1.28,0-.49.48-1a4.52,4.52,0,0,1,2.38-1.28,4.31,4.31,0,0,1,2.64.31C182.78,116.06,183,116.4,183,116.51Z" style="fill:#263238"></path><path d="M191.74,128.48a11.73,11.73,0,0,1,2.69-1c.43-.14.82-.3.84-.62a2.3,2.3,0,0,0-.55-1.24c-.63-1-1.28-2-2-3.08-2.75-4.4-4.83-8-4.65-8.16s2.55,3.37,5.29,7.77c.67,1.08,1.3,2.12,1.91,3.11a2.55,2.55,0,0,1,.57,1.67,1.14,1.14,0,0,1-.59.79,3.33,3.33,0,0,1-.73.25A11,11,0,0,1,191.74,128.48Z" style="fill:#263238"></path><path d="M182.21,110.63c-.07.5-1.83.62-3.8,1.27s-3.48,1.52-3.83,1.16c-.16-.18,0-.67.6-1.26A7,7,0,0,1,181,110C181.79,110.1,182.24,110.39,182.21,110.63Z" style="fill:#263238"></path><path d="M197.8,106.84c-.21.46-1.48.32-2.9.61s-2.56.84-2.92.5c-.17-.17-.07-.6.38-1.09a4,4,0,0,1,2.21-1.15,4.12,4.12,0,0,1,2.48.26C197.64,106.26,197.89,106.62,197.8,106.84Z" style="fill:#263238"></path><path d="M166,126.47c-.2,0-8.13-.74-6.37,6.85s9,4.25,9,4S166,126.47,166,126.47Z" style="fill:#8e5f5b"></path><path d="M165.59,135s-.11.12-.31.27a1.33,1.33,0,0,1-1,.25c-.87-.11-1.84-1.22-2.2-2.58a4.46,4.46,0,0,1-.07-2,1.59,1.59,0,0,1,.76-1.25.71.71,0,0,1,.87.18c.15.19.13.36.18.36s.13-.17,0-.46a.85.85,0,0,0-.41-.41,1,1,0,0,0-.78,0,1.9,1.9,0,0,0-1.11,1.49,4.53,4.53,0,0,0,0,2.22c.4,1.52,1.51,2.77,2.68,2.84a1.46,1.46,0,0,0,1.17-.49C165.62,135.2,165.62,135,165.59,135Z" style="fill:#664442"></path><path d="M193.18,96c1.06-1-3.58-4-6.92-4.69-5-1-12.31-.56-16.22,1.64-4.71,2.65-8.3,6.18-9.73,11.39a30.57,30.57,0,0,0,.33,16,9.33,9.33,0,0,0,2.18,4.37c1.46,1.42,3.75,2,4.22,4.32a3.25,3.25,0,0,0,1.34,2.12c1.74,1.14,3.1-.65,3.55-2.23.95-3.37.28-7-.4-10.39a22.62,22.62,0,0,0-2.21-7.09c-.68-1.17-1.56-2.22-2.17-3.43a4.7,4.7,0,0,1-.38-3.91,4.55,4.55,0,0,1,.47-.77,8.1,8.1,0,0,1,7.48-3.38c4.62.48,12.45,1,14-.94,2.23-2.74,2.56-4.25,2.56-4.25Z" style="fill:#263238"></path><path d="M192.92,136.21a3.11,3.11,0,0,1-4,.4,3.87,3.87,0,0,1-1.57-3.8,1.37,1.37,0,0,1,.41-.89,1.67,1.67,0,0,1,1.19-.22c.89.07,2.74.49,3.8-.18C192.77,131.52,193.84,135.1,192.92,136.21Z" style="fill:#664442"></path><path d="M193.33,136a2.73,2.73,0,0,1-1.84,1.21A3.58,3.58,0,0,1,189,137a3.88,3.88,0,0,1-2-2.25,2.89,2.89,0,0,1-.07-1.62,1.84,1.84,0,0,1,1-1.21,4.32,4.32,0,0,1,2.45-.16,3.79,3.79,0,0,0,1.52-.05c.35-.1.52-.23.54-.19s-.1.21-.46.38a3.43,3.43,0,0,1-1.63.23,4.29,4.29,0,0,0-2.2.21,1.8,1.8,0,0,0-.62,2.25,3.51,3.51,0,0,0,1.73,2,3.31,3.31,0,0,0,2.15.32A5.91,5.91,0,0,0,193.33,136Z" style="fill:#263238"></path><path d="M295.88,157.59c-.19,32.18-3.17,49.65-6.86,63.42l-11.1-49.52,6.61-20.39Z" style="fill:#263238"></path><path d="M247.29,439.24l1,22.4s23.08,6.56,23.66,10.68l-43.36,3.4-2.91-34.84Z" style="fill:#455a64"></path><path d="M234.68,460.81a1.78,1.78,0,0,0-1.06,2.12,1.71,1.71,0,0,0,2.09,1.08,1.87,1.87,0,0,0,1.11-2.25,1.76,1.76,0,0,0-2.29-.88" style="fill:#e0e0e0"></path><g style="opacity:0.6000000000000001"><path d="M228.54,475.72l-.16-3.52L270,470.25s2,.69,1.88,2.07Z" style="fill:#fff"></path></g><path d="M248.92,461.37c0,.21-1,.39-2,1.15s-1.47,1.7-1.67,1.63,0-1.32,1.23-2.22S249,461.17,248.92,461.37Z" style="fill:#263238"></path><path d="M253.62,462.89c.06.2-.82.63-1.47,1.59s-.79,1.91-1,1.92-.44-1.18.39-2.35S253.6,462.69,253.62,462.89Z" style="fill:#263238"></path><path d="M256.63,468.13c-.19.06-.57-1-.11-2.18s1.4-1.74,1.51-1.57-.46.84-.82,1.83S256.84,468.09,256.63,468.13Z" style="fill:#263238"></path><path d="M248.14,456.28c-.07.2-1.07,0-2.26.16s-2.09.63-2.22.46.72-1,2.12-1.19S248.23,456.11,248.14,456.28Z" style="fill:#263238"></path><path d="M225.43,247.61s10.9,26.91,13,40.88,5.49,55.21,5.49,55.21h0c.31,3.95,6.58,105.81,6.58,105.81l-26.73,4-12.91-96.91-11-72.32-3.95-36.73Z" style="fill:#263238"></path><path d="M195.25,441.11l-.63,22.41s22.57,8.17,22.86,12.32l-43.5.34-.45-34.95Z" style="fill:#455a64"></path><path d="M181.16,461.74a1.77,1.77,0,0,0-1.21,2,1.7,1.7,0,0,0,2,1.22,1.87,1.87,0,0,0,1.28-2.16,1.78,1.78,0,0,0-2.23-1" style="fill:#e0e0e0"></path><g style="opacity:0.6000000000000001"><path d="M174,476.18l.09-3.52,41.67,1s1.95.82,1.74,2.19Z" style="fill:#fff"></path></g><path d="M195.33,463.3c0,.21-1.07.31-2.11,1s-1.59,1.59-1.79,1.51.11-1.31,1.39-2.13S195.37,463.1,195.33,463.3Z" style="fill:#263238"></path><path d="M199.9,465.15c0,.2-.86.57-1.58,1.47s-.91,1.86-1.13,1.85-.35-1.21.56-2.31S199.9,464.94,199.9,465.15Z" style="fill:#263238"></path><path d="M202.54,470.59c-.2,0-.5-1,0-2.18s1.52-1.64,1.61-1.47-.52.81-.94,1.77S202.75,470.56,202.54,470.59Z" style="fill:#263238"></path><path d="M194.9,458.17c-.09.2-1.06-.09-2.26,0s-2.13.48-2.25.3.78-1,2.2-1S195,458,194.9,458.17Z" style="fill:#263238"></path><path d="M171,244.89c-1.31.86-5.39,14.18-8.31,30.88s-7.21,11.52-4.31,33.83c3.27,25.23,7.61,40.77,7.76,54.6s3.72,36.57,3.34,52.95,1.14,40.75,1.14,40.75l27.94-.32,1.93-109.06-1.26-100Z" style="fill:#263238"></path><polygon points="171.84 156.86 170.6 149.83 200.67 150.61 204.55 158.65 194.59 178.97 185.18 179.94 171.84 156.86" style="fill:#263238"></polygon><path d="M171,154.67l-4.3,4.59L149.17,161l-2.3,59.9s4,166.53,6.6,177.71c0,0,10,4.59,16.33-1.43a12.53,12.53,0,0,1,6.29-3.55A4.15,4.15,0,0,1,181,397.7h0a4.14,4.14,0,0,0,4.27,4.14c4.89-.13,12.93-1.13,18.38-5.83,8.31-7.16,18.63,4.59,27.8,2.58s7.45-12.61,17.77-11.18,14.9,3.16,14.9,3.16,11.18,4.87,18.63-4c0,0-43.5-137.46-43.1-171.23l-.43-.17-14.14-53.72-14.77-1.91-6.78-6.14-10.08,6.14-2.63,17.66-6.38-17.07Z" style="fill:#FF725E"></path><path d="M281,232c-13.74-1.18-44.54-16.34-44.54-16.34l-12.56-54.33s1.19.08,8.54-1.34,21.43,12.65,21.43,12.65c6.13-5.48,15.88-2,15.88-2s12.68-16.69,14.81-19.53c0,0-.46,67.46,7.62,78.41C294.15,232.22,281,232,281,232Z" style="fill:#FF725E"></path><path d="M240.39,185.35a2.65,2.65,0,0,1,0,.53l-.15,1.51c-.13,1.31-.29,3.2-.42,5.55-.23,4.7-.28,11.2,0,18.37s.85,13.66,1.3,18.35l.56,5.55c.06.6.1,1.1.14,1.51a1.66,1.66,0,0,1,0,.53,1.78,1.78,0,0,1-.11-.52q-.1-.6-.24-1.5c-.2-1.3-.44-3.19-.73-5.53-.54-4.68-1.14-11.17-1.45-18.36a167.82,167.82,0,0,1,.13-18.42c.17-2.36.39-4.25.57-5.56.1-.6.19-1.1.25-1.5A1.83,1.83,0,0,1,240.39,185.35Z" style="fill:#263238"></path><path d="M239.66,172.94a25.92,25.92,0,0,1-1.85-2.24,51.59,51.59,0,0,0-4.78-5.08c-1-.92-2-1.76-2.91-2.5a6.47,6.47,0,0,0-2.63-1.49,2.37,2.37,0,0,0-1.89.43c-.37.3-.46.58-.5.56s0-.32.36-.71a2.47,2.47,0,0,1,2.09-.64,6.38,6.38,0,0,1,2.86,1.47,38.78,38.78,0,0,1,3,2.5,38,38,0,0,1,4.71,5.24A11.5,11.5,0,0,1,239.66,172.94Z" style="fill:#263238"></path><path d="M235,178.25a23.65,23.65,0,0,1-.87-2.69,40.56,40.56,0,0,0-2.65-6.24,39.55,39.55,0,0,0-3.72-5.67,23.28,23.28,0,0,1-1.75-2.22,11.37,11.37,0,0,1,2,2,30.13,30.13,0,0,1,3.9,5.66,30.92,30.92,0,0,1,2.54,6.38A11,11,0,0,1,235,178.25Z" style="fill:#263238"></path><path d="M149.17,161c-2.66-1.36-6-.89-8.92-.16a32.42,32.42,0,0,0-8.14,3.68c-9,5.27-15.91,17.77-23.6,24.85L84.65,168s-8.71-3.71-9.32,5.41c-.07,1,9,60.74,15.58,71.38,13.41,21.52,40.77,3.12,56-20.53l6.65-27.72Z" style="fill:#FF725E"></path><path d="M147.57,170.63a7.78,7.78,0,0,1-1.1.94L143.38,174c-2.6,2.07-6.13,5-9.88,8.42s-7,6.67-9.31,9.07l-2.72,2.85a7.77,7.77,0,0,1-1,1,8,8,0,0,1,.89-1.15c.59-.72,1.48-1.73,2.6-3,2.25-2.47,5.47-5.77,9.23-9.2s7.34-6.33,10-8.33c1.33-1,2.42-1.8,3.19-2.32A7.92,7.92,0,0,1,147.57,170.63Z" style="fill:#263238"></path><path d="M130.29,174.92s.11-.27.39-.72a17.48,17.48,0,0,1,1.32-1.82,23.89,23.89,0,0,1,12.34-7.84,15.92,15.92,0,0,1,2.21-.42,2.56,2.56,0,0,1,.82-.05c0,.09-1.14.28-2.93.83a27,27,0,0,0-12.16,7.72C131,174,130.37,175,130.29,174.92Z" style="fill:#263238"></path><path d="M178,172.66a4.55,4.55,0,0,1-1.14,0l-3.11-.21c-2.62-.18-6.23-.4-10.23-.55s-7.63-.19-10.26-.2l-3.11,0a5.21,5.21,0,0,1-1.14-.07,4.69,4.69,0,0,1,1.14-.13c.73-.06,1.8-.11,3.11-.15,2.63-.08,6.26-.1,10.28.05s7.63.43,10.24.71c1.31.13,2.37.26,3.1.37A5.08,5.08,0,0,1,178,172.66Z" style="fill:#263238"></path><path d="M226,165.82a6.14,6.14,0,0,1-1.18.44c-.78.25-1.91.59-3.31,1-2.8.79-6.7,1.81-11,2.77s-8.3,1.68-11.18,2.14c-1.44.23-2.6.4-3.41.5a5.47,5.47,0,0,1-1.27.1,5.91,5.91,0,0,1,1.23-.3l3.39-.66c2.85-.55,6.8-1.33,11.13-2.29s8.23-1.91,11.06-2.62l3.34-.83A5.29,5.29,0,0,1,226,165.82Z" style="fill:#263238"></path><path d="M235.4,341.42a2.25,2.25,0,0,1-.12-.38c-.07-.28-.17-.64-.3-1.11-.26-1-.64-2.46-1.12-4.3s-1.06-4.16-1.68-6.83-1.37-5.69-2.1-9.07C228.56,313,226.91,305,225.24,296s-3.27-18.86-4.72-29.29-2.52-20.4-3.38-29.48-1.4-17.28-1.75-24.17c-.22-3.44-.32-6.56-.43-9.3s-.19-5.09-.23-7-.07-3.4-.09-4.44c0-.49,0-.87,0-1.15a1.71,1.71,0,0,1,0-.4,2.33,2.33,0,0,1,0,.39c0,.29,0,.67.06,1.16,0,1,.1,2.53.18,4.43s.17,4.29.32,7,.27,5.85.5,9.29c.4,6.88,1,15.07,1.87,24.14s2,19,3.42,29.46,3.06,20.31,4.67,29.28,3.26,17,4.73,23.75c.7,3.37,1.43,6.4,2,9.08s1.14,5,1.59,6.84.78,3.3,1,4.32c.11.48.19.85.25,1.13A1.55,1.55,0,0,1,235.4,341.42Z" style="fill:#263238"></path><path d="M173.61,367.89a1.71,1.71,0,0,1-.06-.36c0-.27-.05-.63-.1-1.08-.08-1-.19-2.35-.33-4.12-.29-3.59-.65-8.78-1.05-15.19-.79-12.83-1.62-30.58-2-50.19s-.22-37.39.08-50.24c.14-6.43.3-11.63.45-15.22.08-1.77.14-3.16.18-4.14,0-.45,0-.8.06-1.07a2.24,2.24,0,0,1,0-.37,2.12,2.12,0,0,1,0,.37v1.08c0,1,0,2.36-.08,4.13-.07,3.63-.17,8.82-.3,15.22-.2,12.85-.29,30.61.08,50.23s1.16,37.34,1.86,50.18l.88,15.19c.1,1.77.18,3.16.24,4.14l.05,1.07Z" style="fill:#263238"></path><path d="M199.89,380.59s-.07-.15-.18-.45l-.47-1.34c-.4-1.2-1-2.94-1.74-5.16l-1.26-3.74c-.42-1.37-.89-2.87-1.38-4.47-1-3.22-2.16-6.86-3.26-10.94l-1.79-6.4c-.62-2.23-1.18-4.56-1.8-7-1.28-4.81-2.43-10-3.68-15.46-2.36-10.93-4.64-23-6.5-35.81s-3-25-3.83-36.2c-.33-5.59-.69-10.89-.82-15.87-.07-2.48-.19-4.88-.23-7.19s0-4.53-.08-6.64c-.09-4.24,0-8.06,0-11.42,0-1.68.05-3.25.08-4.69s.1-2.75.15-3.93c.1-2.35.17-4.18.22-5.44,0-.61.06-1.08.08-1.42s0-.48,0-.48,0,.16,0,.48,0,.81,0,1.42c0,1.27-.07,3.1-.13,5.44,0,1.19-.07,2.5-.11,3.94s0,3,0,4.68c0,3.36-.08,7.18,0,11.41q.06,3.18.11,6.64c.05,2.3.18,4.7.27,7.19.14,5,.52,10.27.86,15.85.83,11.14,2.06,23.38,3.87,36.16s4.12,24.85,6.45,35.78C186,331,187.17,336.2,188.43,341c.61,2.41,1.16,4.75,1.77,7s1.19,4.36,1.75,6.4c1.08,4.08,2.24,7.73,3.19,11l1.34,4.48c.44,1.37.85,2.62,1.21,3.75.71,2.23,1.27,4,1.65,5.19l.42,1.35C199.85,380.43,199.89,380.59,199.89,380.59Z" style="fill:#263238"></path><path d="M284.25,147.89s-1.59-8.46-1.41-11.1,1.41-16,2.29-16.21,2.57-1.06,2.87,1.76a12.77,12.77,0,0,0,.83,3.88s3.7-3,6.35-2.47,2.29,4,2.29,6a5.61,5.61,0,0,1,1.93,3.53,25.78,25.78,0,0,1,0,4s1.06.53,1.06,4.58-5.11,10.92-5.11,10.92l.53,4.77s-10.35-1.14-10.93-3.88A41.93,41.93,0,0,1,284.25,147.89Z" style="fill:#8e5f5b"></path><path d="M297.45,129.6c0,.1-1.13,0-2.87.2a6,6,0,0,0-2.8,1.09,4,4,0,0,0-1.13,1.32,4.13,4.13,0,0,1-1.25,1.68,1.54,1.54,0,0,1-1.17.23,1.67,1.67,0,0,1-.93-.65,3.06,3.06,0,0,1-.43-1.94,8.59,8.59,0,0,1,.72-3.12,7.93,7.93,0,0,1,1.13-1.84c.33-.38.55-.56.57-.54a17.85,17.85,0,0,0-1.36,2.52,8.87,8.87,0,0,0-.58,3,2.73,2.73,0,0,0,.36,1.63,1,1,0,0,0,1.41.28,3.85,3.85,0,0,0,1.09-1.49,4.35,4.35,0,0,1,1.29-1.46,6.15,6.15,0,0,1,3-1.07,11.15,11.15,0,0,1,2.15,0A2.29,2.29,0,0,1,297.45,129.6Z" style="fill:#664442"></path><path d="M297.33,135.89s-.26,0-.71,0a5.8,5.8,0,0,0-1.85.09,2.45,2.45,0,0,0-1.07.58,3,3,0,0,0-.68,1.23,7.64,7.64,0,0,1-.64,1.62,2.1,2.1,0,0,1-1.69,1,2.71,2.71,0,0,1-1.86-.63,3.05,3.05,0,0,1-.94-1.55,4.68,4.68,0,0,1,.26-2.93,9.28,9.28,0,0,1,.93-1.71c.25-.38.41-.58.44-.56s-.48.91-1,2.4a4.51,4.51,0,0,0-.15,2.68,2.71,2.71,0,0,0,.8,1.28,2.26,2.26,0,0,0,1.51.5,1.6,1.6,0,0,0,1.29-.77,7.39,7.39,0,0,0,.62-1.5,3.46,3.46,0,0,1,.84-1.39,2.74,2.74,0,0,1,1.27-.62,4.84,4.84,0,0,1,2,.07A1.77,1.77,0,0,1,297.33,135.89Z" style="fill:#664442"></path><path d="M297.84,141s-.14.2-.5.37a3.09,3.09,0,0,1-1.69.26l.23-.16a5.93,5.93,0,0,1-.62,2,7,7,0,0,1-.66,1,2.21,2.21,0,0,1-1.13.84A1.82,1.82,0,0,1,292,145a3,3,0,0,1-.89-1,3.76,3.76,0,0,1-.41-2.19,2.46,2.46,0,0,1,.85-1.81,6.36,6.36,0,0,0-.48,1.84,3.6,3.6,0,0,0,.46,1.93,2.68,2.68,0,0,0,.76.85,1.32,1.32,0,0,0,1.07.25,1.73,1.73,0,0,0,.86-.65,7.46,7.46,0,0,0,.64-.94,6.37,6.37,0,0,0,.65-1.84l0-.2.19,0A4.46,4.46,0,0,0,297.84,141Z" style="fill:#664442"></path><path d="M291.49,143.38a7.31,7.31,0,0,0-4.93,5.5c-.06,0-.13-.46,0-1.19a5.73,5.73,0,0,1,3.73-4.17C291,143.29,291.48,143.32,291.49,143.38Z" style="fill:#664442"></path><path d="M147.13,245.41a2.63,2.63,0,0,1,0-.61c0-.46,0-1.05,0-1.77,0-1.6,0-3.8,0-6.48,0-5.48-.06-13-.23-21.39s-.35-15.86-.48-21.4c0-2.69-.07-4.89-.09-6.49v-1.76a2.87,2.87,0,0,1,0-.62,2.87,2.87,0,0,1,.07.62c0,.46.05,1,.09,1.76.07,1.6.15,3.79.26,6.48.2,5.47.46,13,.63,21.4s.18,15.92.08,21.4c-.05,2.74-.12,5-.19,6.49,0,.72-.06,1.3-.09,1.76A3.27,3.27,0,0,1,147.13,245.41Z" style="fill:#263238"></path><g style="opacity:0.30000000000000004"><path d="M105.89,221.07c0,4-3.39,9.19-6.94,11.11s-9.46.88-12.86-1.29A29.27,29.27,0,0,0,90.94,239c1.93,2.52,3.64,4.86,6.43,6.39,3.9,2.15,10.46,2.74,11.12-1.48S107.51,225,105.89,221.07Z"></path></g><path d="M72.7,179.13s2.59,21.92,5,27.93,2.83,25.05,15.21,28.17c8.33,2.09,13.37-12.39,13.37-12.39s-6-27.8-13.43-42.9-10.71-13.62-10.71-13.62Z" style="fill:#263238"></path><path d="M83.54,170.66s4.54-5.94,4.5-8.34l-1.87-14s-1.17-1.29-2.58,1,0,5.43,0,5.43L82.81,158l-1.7-2.48-1.92-9.34s-1.23-6.75-2.27-6-1.35,2.67-.82,5.58l1.2,6.6s.13,1.15-1-.78-2.27-10.08-2.69-11.17-.59-4-2.25-3.85-.69,3.87-.69,3.87l1.61,12s-1.56-4.84-1.86-5.67-.76-3.47-1.31-4.91-1.41-2.18-2.15-2.09a1.38,1.38,0,0,0-1.3,1.37l2.47,10.29s1.37,4.7,1.28,5-1.83-1.95-1.83-1.95l-1.32-3.34s-1.1-4.73-2.37-4.87-1.32.83-1.32.83l2.09,8.64,3.83,9.8,3.63,7.41s5-.79,5.25-.53S83.54,170.66,83.54,170.66Z" style="fill:#8e5f5b"></path><path d="M74.58,166.5a15.76,15.76,0,0,0,1-2.18,7.59,7.59,0,0,1,3.74-4,4.12,4.12,0,0,1,2.66-.21l.29.09.07-.32c.33-1.44.78-2.76,1-3.66s.3-1.49.22-1.49a8.75,8.75,0,0,0-.56,1.38,38.17,38.17,0,0,0-1.21,3.69l.36-.23a4.46,4.46,0,0,0-3,.18,6.35,6.35,0,0,0-2.63,2,10,10,0,0,0-1.29,2.35A7,7,0,0,0,74.58,166.5Z" style="fill:#664442"></path><path d="M72.17,172.94S72.6,195,82.45,196.17s11.19-10.46,11.19-10.46l-8.59-18.9-12.88,6.13" style="fill:#8e5f5b"></path><path d="M105.17,253.48a6.33,6.33,0,0,0,1.84-1.86c.92-1.43,1.41-3.93,1.31-7s-.28-6.72-.71-10.75-1.06-8.45-2-13a141.35,141.35,0,0,0-6.67-23c-1.1-2.86-2.07-5.15-2.76-6.72-.32-.75-.58-1.36-.79-1.82a4.57,4.57,0,0,1-.24-.65,3.71,3.71,0,0,1,.34.61c.22.45.51,1,.88,1.77.74,1.55,1.77,3.82,2.92,6.68a131.44,131.44,0,0,1,6.83,23,131.83,131.83,0,0,1,2,13.09c.4,4,.54,7.72.6,10.79s-.5,5.65-1.51,7.1a5.26,5.26,0,0,1-1.4,1.43A2.23,2.23,0,0,1,105.17,253.48Z" style="fill:#263238"></path><path d="M126.59,234.46a2.22,2.22,0,0,1-.14-.5c-.07-.39-.17-.87-.28-1.45-.23-1.26-.61-3.08-1.13-5.31s-1.23-4.86-2.13-7.74-2-6-3.38-9.24-2.82-6.2-4.23-8.88-2.82-5-4-6.94-2.26-3.47-3-4.51l-.84-1.22a2.07,2.07,0,0,1-.26-.45,2.91,2.91,0,0,1,.35.39l.91,1.16c.79,1,1.87,2.52,3.15,4.43s2.69,4.25,4.16,6.92,2.92,5.67,4.29,8.9,2.46,6.39,3.36,9.29,1.56,5.57,2,7.81.8,4.08,1,5.35c.07.59.14,1.08.19,1.47A1.72,1.72,0,0,1,126.59,234.46Z" style="fill:#263238"></path><path d="M270.42,216.36a2,2,0,0,1-.17-.44c-.11-.35-.24-.77-.39-1.28-.34-1.11-.76-2.75-1.2-4.79s-.86-4.49-1.21-7.23-.54-5.77-.58-9,.13-6.22.38-9,.64-5.21,1.05-7.26.77-3.69,1.09-4.81c.14-.52.26-.94.36-1.3a2.36,2.36,0,0,1,.16-.44,1.38,1.38,0,0,1-.06.47c-.07.36-.16.79-.27,1.31-.25,1.14-.57,2.79-.92,4.84s-.68,4.5-.93,7.23-.37,5.76-.34,8.92.25,6.18.54,8.91.69,5.18,1.09,7.22.75,3.68,1,4.81c.12.52.22.95.3,1.31A1.25,1.25,0,0,1,270.42,216.36Z" style="fill:#263238"></path><path d="M279,374.78a8.16,8.16,0,0,1-4,3.39,14.89,14.89,0,0,1-6.15.84,61.18,61.18,0,0,1-8.17-1.12,45.92,45.92,0,0,0-9.83-1.16,14.74,14.74,0,0,0-5.33,1.08,18.85,18.85,0,0,0-4.87,3.13c-1.54,1.28-3,2.72-4.71,4a13.83,13.83,0,0,1-5.8,2.94,10.42,10.42,0,0,1-3.39,0,16.24,16.24,0,0,1-3.28-1c-2.13-.83-4.16-1.92-6.34-2.65a10.23,10.23,0,0,0-6.6-.13,36.07,36.07,0,0,0-6,2.9,16.24,16.24,0,0,1-6.11,2.24,13.36,13.36,0,0,1-6.15-1c-1.9-.7-3.68-1.54-5.49-2.09a16,16,0,0,0-5.4-.72,42,42,0,0,0-9.71,1.91,48.54,48.54,0,0,1-8,1.82,20.1,20.1,0,0,1-6.22-.18,11.56,11.56,0,0,1-3.68-1.4,8,8,0,0,1-1.12-.79s.4.27,1.18.7a11.7,11.7,0,0,0,3.66,1.29,19.9,19.9,0,0,0,6.14.09,49.06,49.06,0,0,0,8-1.88,41.26,41.26,0,0,1,9.79-2,16.74,16.74,0,0,1,5.56.71c1.84.56,3.64,1.39,5.51,2.08a12.94,12.94,0,0,0,5.94,1,16.14,16.14,0,0,0,5.92-2.19,36,36,0,0,1,6-3,10.66,10.66,0,0,1,6.92.13c2.24.74,4.28,1.85,6.37,2.66a15.92,15.92,0,0,0,3.17.93,9.87,9.87,0,0,0,3.21,0,13.46,13.46,0,0,0,5.6-2.83c1.65-1.29,3.14-2.72,4.71-4a19.22,19.22,0,0,1,5-3.19,15.56,15.56,0,0,1,5.5-1.09,47.18,47.18,0,0,1,9.91,1.23,62,62,0,0,0,8.11,1.2A14.82,14.82,0,0,0,275,378a8.19,8.19,0,0,0,3.19-2.16C278.75,375.16,279,374.76,279,374.78Z" style="fill:#fff"></path><path d="M278,371.43a7.6,7.6,0,0,1-.78,1.11,7.49,7.49,0,0,1-3.16,2.28,13.25,13.25,0,0,1-6.13.56c-2.4-.25-5.1-.74-8.07-1.29a38.23,38.23,0,0,0-9.76-1,14,14,0,0,0-5.22,1.34,22.41,22.41,0,0,0-4.73,3.3c-1.52,1.29-3,2.71-4.7,4a12.41,12.41,0,0,1-5.9,2.61,12.91,12.91,0,0,1-6.57-1.22,60.18,60.18,0,0,0-6.29-2.58,10.8,10.8,0,0,0-3.31-.49,11.16,11.16,0,0,0-3.24.64,44.43,44.43,0,0,0-5.89,3,15.57,15.57,0,0,1-6.12,2.08,14.54,14.54,0,0,1-6.08-1.18c-1.88-.72-3.64-1.54-5.44-2.06a16.08,16.08,0,0,0-5.38-.63,42.89,42.89,0,0,0-9.62,1.94,47.65,47.65,0,0,1-8,1.78,19.74,19.74,0,0,1-6.17-.19,11.68,11.68,0,0,1-3.65-1.4,8.88,8.88,0,0,1-1.11-.78s.39.26,1.17.69a11.82,11.82,0,0,0,3.63,1.29,19.86,19.86,0,0,0,6.09.1,48.14,48.14,0,0,0,7.92-1.84,42.49,42.49,0,0,1,9.7-2,16.51,16.51,0,0,1,5.53.62c1.84.53,3.62,1.35,5.48,2.05a14,14,0,0,0,5.88,1.13,15.15,15.15,0,0,0,5.91-2,45.47,45.47,0,0,1,6-3,10.26,10.26,0,0,1,6.86-.16,62.23,62.23,0,0,1,6.34,2.6,12.48,12.48,0,0,0,6.32,1.19,11.9,11.9,0,0,0,5.66-2.5c1.67-1.24,3.16-2.65,4.68-4a23.3,23.3,0,0,1,4.85-3.34,14.58,14.58,0,0,1,5.39-1.36,39,39,0,0,1,9.86,1c3,.58,5.65,1.1,8,1.37a13.34,13.34,0,0,0,6-.46,7.55,7.55,0,0,0,3.15-2.16C277.72,371.81,278,371.41,278,371.43Z" style="fill:#fff"></path><g style="opacity:0.30000000000000004"><path d="M251.35,219.66a36.73,36.73,0,0,1-11.94-13.27l.38,10.87a263.88,263.88,0,0,0,27.43,11.38A112,112,0,0,1,251.35,219.66Z"></path></g><g style="opacity:0.30000000000000004"><path d="M269.86,171.1l-.14-.47a71.24,71.24,0,0,0-5,35.54,14.26,14.26,0,0,0,1,4.2,5.51,5.51,0,0,0,3,3A103.81,103.81,0,0,1,269.86,171.1Z"></path></g><path d="M246.81,194.76a3.26,3.26,0,0,1-.05-.94,23.31,23.31,0,0,1,.15-2.56,39.4,39.4,0,0,1,5.22-16c.55-.93,1-1.66,1.39-2.15a3.35,3.35,0,0,1,.6-.73c.07.05-.66,1.17-1.67,3.06a48.12,48.12,0,0,0-3.3,7.69,49.19,49.19,0,0,0-1.88,8.14C247,193.43,246.89,194.76,246.81,194.76Z" style="fill:#263238"></path><g style="opacity:0.30000000000000004"><path d="M188.25,338.32a406.87,406.87,0,0,1-15.18-111.24l-.07-5c-3.19,28.51-2.55,67.79-1.16,102.07.35,8.54-1,19.21,5.29,25,2.45,2.26,6.2,3.73,9.1,2.1a7.19,7.19,0,0,0,3.22-6A22.06,22.06,0,0,0,188.25,338.32Z"></path></g><g style="opacity:0.30000000000000004"><path d="M146.87,200.86c-.91,12.52-6.42,26.73-11.77,38.08h0c4.15-3.6,12.39-15.48,12.39-15.48C148.83,217.5,146.34,208.19,146.87,200.86Z"></path></g><g style="opacity:0.30000000000000004"><path d="M121.12,207.36c-3.35-6.5-8-12.38-12.49-18.11l-.12.1a156.9,156.9,0,0,1,17.34,39.1C126.58,221.18,124.47,213.85,121.12,207.36Z"></path></g><g style="opacity:0.30000000000000004"><path d="M147.22,166.9a47.85,47.85,0,0,0-17.39,11c-1.13,1.11-2.27,2.45-2.26,4q9.59-7.91,19.78-15"></path></g><g style="opacity:0.30000000000000004"><path d="M219,252.46c2.62,24.44,7.53,51,14,78.92C233.8,303,229.89,278.64,219,252.46Z"></path></g><path d="M113.36,251.74a3.61,3.61,0,0,1,0-.72c0-.53,0-1.22.05-2.07s.07-2,0-3.28,0-2.73,0-4.33-.1-3.37-.25-5.25-.32-3.89-.53-6c-.51-4.22-1.25-8.83-2.32-13.61s-2.43-9.25-3.79-13.27c-.72-2-1.38-3.91-2.11-5.65s-1.39-3.37-2-4.84-1.29-2.77-1.83-3.93-1-2.13-1.47-2.93L98.12,184a4.41,4.41,0,0,1-.3-.66,3.26,3.26,0,0,1,.39.61c.26.46.61,1.05,1,1.8s1,1.74,1.55,2.89,1.26,2.43,1.91,3.91,1.41,3.07,2.11,4.83,1.42,3.65,2.16,5.65a132.43,132.43,0,0,1,3.85,13.31A131.51,131.51,0,0,1,113.1,230c.2,2.13.42,4.14.49,6s.17,3.66.19,5.27,0,3.07,0,4.35-.07,2.38-.14,3.27-.11,1.55-.15,2.07A3.35,3.35,0,0,1,113.36,251.74Z" style="fill:#fff"></path><path d="M115.6,252a6.65,6.65,0,0,1,0-.73c0-.53.09-1.23.16-2.1s.18-2,.22-3.32.17-2.77.15-4.4c0-.81,0-1.67,0-2.56s-.05-1.81-.08-2.77c0-1.92-.21-4-.36-6.11a119.82,119.82,0,0,0-2.14-13.84,120,120,0,0,0-3.89-13.47c-.76-2-1.45-3.94-2.23-5.69-.39-.88-.72-1.75-1.1-2.55l-1.1-2.31c-.67-1.49-1.39-2.78-2-3.93s-1.13-2.13-1.6-2.92-.76-1.37-1-1.83a3.25,3.25,0,0,1-.32-.66,5.34,5.34,0,0,1,.41.6c.29.45.66,1.05,1.12,1.79s1.07,1.73,1.68,2.88,1.36,2.42,2,3.9l1.13,2.31c.39.81.74,1.67,1.13,2.55.81,1.75,1.52,3.68,2.29,5.7a111.52,111.52,0,0,1,4,13.51,112.72,112.72,0,0,1,2.1,13.92c.15,2.16.32,4.21.32,6.14,0,1,.06,1.89,0,2.78s0,1.75,0,2.57c0,1.64-.15,3.11-.23,4.41s-.19,2.41-.31,3.32-.19,1.56-.26,2.09A3.12,3.12,0,0,1,115.6,252Z" style="fill:#fff"></path><path d="M283.14,232.23a3.51,3.51,0,0,1-.29-.71c-.19-.52-.44-1.21-.74-2.08s-.71-2-1.08-3.31-.87-2.78-1.27-4.45-.9-3.47-1.3-5.45-.8-4.09-1.18-6.33a131.68,131.68,0,0,1-1.41-14.67,129.13,129.13,0,0,1,.42-14.73c.23-2.26.43-4.4.75-6.39s.61-3.85.92-5.53.68-3.19,1-4.52.59-2.46.85-3.39.45-1.58.6-2.12a4.22,4.22,0,0,1,.24-.73,3.75,3.75,0,0,1-.14.76c-.13.54-.29,1.25-.5,2.14s-.51,2.07-.77,3.4-.62,2.84-.88,4.53-.62,3.52-.86,5.52-.49,4.12-.71,6.37a136.13,136.13,0,0,0-.37,14.68,139.08,139.08,0,0,0,1.36,14.61c.37,2.23.7,4.35,1.14,6.31s.82,3.79,1.23,5.45.83,3.14,1.19,4.45.7,2.43,1,3.34.48,1.58.65,2.11A4.13,4.13,0,0,1,283.14,232.23Z" style="fill:#fff"></path><path d="M279.47,231.85a5.09,5.09,0,0,1-.34-.65c-.22-.47-.52-1.1-.88-1.89s-.85-1.83-1.3-3-1.05-2.55-1.53-4.11-1.09-3.22-1.56-5.07-1-3.83-1.43-5.92a96.47,96.47,0,0,1-1.68-13.86,97.77,97.77,0,0,1,.5-13.95c.28-2.13.52-4.16.9-6s.71-3.61,1.08-5.19.79-3,1.12-4.23.69-2.3,1-3.16.52-1.47.69-2a4,4,0,0,1,.27-.67,3.47,3.47,0,0,1-.17.71c-.15.5-.35,1.17-.59,2s-.6,1.93-.9,3.17-.74,2.65-1.05,4.24-.73,3.31-1,5.19-.58,3.88-.84,6a101.68,101.68,0,0,0-.46,13.88,98.47,98.47,0,0,0,1.63,13.78c.45,2.09.85,4.08,1.37,5.91s1,3.53,1.5,5.07,1,2.9,1.45,4.11.85,2.23,1.21,3.06l.8,1.93A2.87,2.87,0,0,1,279.47,231.85Z" style="fill:#fff"></path><path d="M207,156.51a52,52,0,0,1-6.65,3.45,54.65,54.65,0,0,1-6.88,3,54.21,54.21,0,0,1,6.66-3.46A54.94,54.94,0,0,1,207,156.51Z" style="fill:#fff"></path><path d="M186,164.26a94,94,0,0,1-9.27-2.88,91.88,91.88,0,0,1-9.1-3.37,88,88,0,0,1,9.27,2.88A87.87,87.87,0,0,1,186,164.26Z" style="fill:#fff"></path></g><g id="freepik--Plant--inject-64"><path d="M645.66,426.24a9.41,9.41,0,0,1,4.85,5.49,16.57,16.57,0,0,1,.64,7.44c-.55,4.83-3.29,9.71-6.25,13.57-4.06-3.55-5-9.74-5.28-12.91-.43-5,1.82-14.34,6-13.59" style="fill:#FF725E"></path><path d="M649.63,460.71a8,8,0,0,1,2.58-7.59,10.56,10.56,0,0,1,7.82-2.44,4.42,4.42,0,0,1,3.43,1.54,3.4,3.4,0,0,1,.06,3.46A7,7,0,0,1,661,458.2c-3.52,2.21-7.34,3.7-11.32,2.51" style="fill:#FF725E"></path><path d="M644.41,475.52a7.28,7.28,0,0,1,.15-1c.13-.7.29-1.6.49-2.69a28,28,0,0,1,2.77-8.56,17.18,17.18,0,0,1,6.15-6.54,11.44,11.44,0,0,1,2.51-1.11,6.75,6.75,0,0,1,.72-.18.7.7,0,0,1,.26,0A18,18,0,0,0,654.1,457a17.55,17.55,0,0,0-6,6.49,30,30,0,0,0-2.83,8.44c-.25,1.13-.45,2-.61,2.66A4.45,4.45,0,0,1,644.41,475.52Z" style="fill:#263238"></path><path d="M644.57,433.49a2.14,2.14,0,0,1,0,.43c0,.33,0,.74.07,1.25.06,1.08.12,2.65.19,4.58.12,3.87.22,9.22.19,15.13s-.17,11.25-.33,15.12c-.07,1.94-.15,3.5-.22,4.58,0,.51-.06.92-.08,1.25a1.69,1.69,0,0,1-.06.43,3,3,0,0,1,0-.44c0-.32,0-.73,0-1.24,0-1.13.07-2.68.12-4.59.09-3.86.2-9.21.22-15.12s0-11.24-.09-15.11c0-1.91-.06-3.46-.08-4.59v-1.24A2.12,2.12,0,0,1,644.57,433.49Z" style="fill:#263238"></path><path d="M642.59,463.65A18.66,18.66,0,0,0,632.4,450c-1.36-.65-3.14-1.08-4.26-.07s-.86,2.83-.32,4.24a16,16,0,0,0,14.68,9.91" style="fill:#FF725E"></path><path d="M633.05,454.55a5,5,0,0,1,.87.37,8.8,8.8,0,0,1,1,.52,13.55,13.55,0,0,1,1.24.78,17,17,0,0,1,1.42,1.07,18.6,18.6,0,0,1,1.52,1.37,21.23,21.23,0,0,1,2.87,3.69,20.54,20.54,0,0,1,1.89,4.28,19.64,19.64,0,0,1,.48,2,13.65,13.65,0,0,1,.24,1.76,13,13,0,0,1,.07,1.46,9.32,9.32,0,0,1,0,1.11,4.66,4.66,0,0,1-.11.94c-.08,0,.06-1.35-.18-3.48a15.1,15.1,0,0,0-.28-1.73,18.07,18.07,0,0,0-.5-1.95,21,21,0,0,0-1.88-4.19,21.55,21.55,0,0,0-2.81-3.65c-.5-.5-1-1-1.46-1.38s-1-.76-1.38-1.08C634.24,455.17,633,454.62,633.05,454.55Z" style="fill:#263238"></path></g><g id="freepik--Floor--inject-64"><path d="M705.67,476.18c0,.15-148.06.26-330.65.26s-330.69-.11-330.69-.26,148-.26,330.69-.26S705.67,476,705.67,476.18Z" style="fill:#263238"></path></g></svg>